<svg xmlns="http://www.w3.org/2000/svg" version="1.1" width="680" height="261">
<path d="M 2.449219 91.319336 L 2.449219 83.950195 L 6.729980 83.950195 L 6.729980 85.797852 L 4.167969 85.797852 L 4.167969 91.319336 Z " fill="rgb(0, 0, 0)" fill-opacity="1.000000" />
<path d="M 2.449219 104.319336 L 2.449219 90.300781 L 4.167969 90.300781 L 4.167969 104.319336 Z " fill="rgb(0, 0, 0)" fill-opacity="1.000000" />
<path d="M 2.449219 117.319336 L 2.449219 103.300781 L 4.167969 103.300781 L 4.167969 117.319336 Z " fill="rgb(0, 0, 0)" fill-opacity="1.000000" />
<path d="M 2.449219 130.319336 L 2.449219 116.300781 L 4.167969 116.300781 L 4.167969 130.319336 Z " fill="rgb(0, 0, 0)" fill-opacity="1.000000" />
<path d="M 2.449219 137.797852 L 2.449219 129.300781 L 4.167969 129.300781 L 4.167969 135.950195 L 6.729980 135.950195 L 6.729980 137.797852 Z " fill="rgb(0, 0, 0)" fill-opacity="1.000000" />
<path d="M 28.461914 144.980957 L 29.627441 144.980957 L 31.389160 148.004883 L 33.183105 144.980957 L 34.348633 144.980957 L 31.947754 148.751465 L 34.520508 153.000000 L 33.354980 153.000000 L 31.389160 149.546387 L 29.267578 153.000000 L 28.096680 153.000000 L 30.782227 148.751465 Z " fill="rgb(0, 0, 0)" fill-opacity="1.000000" />
<path d="M 107.878906 169.319336 L 107.878906 155.300781 L 108.738281 155.300781 L 108.738281 169.319336 Z " fill="rgb(0, 0, 0)" fill-opacity="1.000000" />
<path d="M 107.878906 176.335938 L 107.878906 168.300781 L 108.738281 168.300781 L 108.738281 175.412109 L 111.729980 175.412109 L 111.729980 176.335938 Z " fill="rgb(0, 0, 0)" fill-opacity="1.000000" />
<path d="M 239.154785 222.980957 L 240.245117 222.980957 L 240.245117 230.086914 L 244.117676 230.086914 L 244.117676 231.000000 L 239.154785 231.000000 Z " fill="rgb(0, 0, 0)" fill-opacity="1.000000" />
<path d="M 248.770508 227.976074 L 248.442871 227.976074 Q 247.578125 227.976074 247.140381 228.279541 Q 246.702637 228.583008 246.702637 229.184570 Q 246.702637 229.727051 247.030273 230.027832 Q 247.357910 230.328613 247.937988 230.328613 Q 248.754395 230.328613 249.221680 229.761963 Q 249.688965 229.195312 249.694336 228.196289 L 249.694336 227.976074 Z M 250.687988 227.567871 L 250.687988 231.000000 L 249.694336 231.000000 L 249.694336 230.108398 Q 249.377441 230.645508 248.896729 230.900635 Q 248.416016 231.155762 247.728516 231.155762 Q 246.810059 231.155762 246.262207 230.637451 Q 245.714355 230.119141 245.714355 229.249023 Q 245.714355 228.244629 246.388428 227.723633 Q 247.062500 227.202637 248.367676 227.202637 L 249.694336 227.202637 L 249.694336 227.046875 Q 249.688965 226.327148 249.329102 226.002197 Q 248.969238 225.677246 248.179688 225.677246 Q 247.674805 225.677246 247.159180 225.822266 Q 246.643555 225.967285 246.154785 226.246582 L 246.154785 225.258301 Q 246.702637 225.048828 247.204834 224.944092 Q 247.707031 224.839355 248.179688 224.839355 Q 248.926270 224.839355 249.455322 225.059570 Q 249.984375 225.279785 250.312012 225.720215 Q 250.516113 225.988770 250.602051 226.383545 Q 250.687988 226.778320 250.687988 227.567871 Z " fill="rgb(0, 0, 0)" fill-opacity="1.000000" />
<path d="M 255.297852 223.276367 L 255.297852 224.984375 L 257.542969 224.984375 L 257.542969 225.752441 L 255.297852 225.752441 L 255.297852 229.018066 Q 255.297852 229.684082 255.550293 229.947266 Q 255.802734 230.210449 256.431152 230.210449 L 257.542969 230.210449 L 257.542969 231.000000 L 256.334473 231.000000 Q 255.222656 231.000000 254.766113 230.554199 Q 254.309570 230.108398 254.309570 229.018066 L 254.309570 225.752441 L 252.703613 225.752441 L 252.703613 224.984375 L 254.309570 224.984375 L 254.309570 223.276367 Z " fill="rgb(0, 0, 0)" fill-opacity="1.000000" />
<path d="M 265.015625 227.498047 L 265.015625 227.981445 L 260.734863 227.981445 L 260.734863 228.013672 Q 260.691895 229.243652 261.204834 229.780762 Q 261.717773 230.317871 262.652344 230.317871 Q 263.125000 230.317871 263.640625 230.167480 Q 264.156250 230.017090 264.741699 229.710938 L 264.741699 230.693848 Q 264.177734 230.924805 263.654053 231.040283 Q 263.130371 231.155762 262.641602 231.155762 Q 261.239746 231.155762 260.450195 230.315186 Q 259.660645 229.474609 259.660645 227.997559 Q 259.660645 226.558105 260.434082 225.698730 Q 261.207520 224.839355 262.496582 224.839355 Q 263.645996 224.839355 264.309326 225.618164 Q 264.972656 226.396973 265.015625 227.498047 Z M 264.027344 227.208008 Q 263.962891 226.584961 263.573486 226.131104 Q 263.184082 225.677246 262.453613 225.677246 Q 261.739258 225.677246 261.277344 226.149902 Q 260.815430 226.622559 260.772461 227.213379 Z " fill="rgb(0, 0, 0)" fill-opacity="1.000000" />
<path d="M 271.645020 227.272461 L 271.645020 231.000000 L 270.651367 231.000000 L 270.651367 227.272461 Q 270.651367 226.461426 270.366699 226.080078 Q 270.082031 225.698730 269.475098 225.698730 Q 268.782227 225.698730 268.408936 226.190186 Q 268.035645 226.681641 268.035645 227.600098 L 268.035645 231.000000 L 267.047363 231.000000 L 267.047363 224.984375 L 268.035645 224.984375 L 268.035645 225.886719 Q 268.298828 225.371094 268.750000 225.105225 Q 269.201172 224.839355 269.818848 224.839355 Q 270.737305 224.839355 271.191162 225.443604 Q 271.645020 226.047852 271.645020 227.272461 Z " fill="rgb(0, 0, 0)" fill-opacity="1.000000" />
<path d="M 276.297852 223.276367 L 276.297852 224.984375 L 278.542969 224.984375 L 278.542969 225.752441 L 276.297852 225.752441 L 276.297852 229.018066 Q 276.297852 229.684082 276.550293 229.947266 Q 276.802734 230.210449 277.431152 230.210449 L 278.542969 230.210449 L 278.542969 231.000000 L 277.334473 231.000000 Q 276.222656 231.000000 275.766113 230.554199 Q 275.309570 230.108398 275.309570 229.018066 L 275.309570 225.752441 L 273.703613 225.752441 L 273.703613 224.984375 L 275.309570 224.984375 L 275.309570 223.276367 Z " fill="rgb(0, 0, 0)" fill-opacity="1.000000" />
<path d="M 287.537109 224.984375 L 288.562988 224.984375 L 290.308594 230.033203 L 292.059570 224.984375 L 293.085449 224.984375 L 290.947754 231.000000 L 289.674805 231.000000 Z " fill="rgb(0, 0, 0)" fill-opacity="1.000000" />
<path d="M 300.015625 227.498047 L 300.015625 227.981445 L 295.734863 227.981445 L 295.734863 228.013672 Q 295.691895 229.243652 296.204834 229.780762 Q 296.717773 230.317871 297.652344 230.317871 Q 298.125000 230.317871 298.640625 230.167480 Q 299.156250 230.017090 299.741699 229.710938 L 299.741699 230.693848 Q 299.177734 230.924805 298.654053 231.040283 Q 298.130371 231.155762 297.641602 231.155762 Q 296.239746 231.155762 295.450195 230.315186 Q 294.660645 229.474609 294.660645 227.997559 Q 294.660645 226.558105 295.434082 225.698730 Q 296.207520 224.839355 297.496582 224.839355 Q 298.645996 224.839355 299.309326 225.618164 Q 299.972656 226.396973 300.015625 227.498047 Z M 299.027344 227.208008 Q 298.962891 226.584961 298.573486 226.131104 Q 298.184082 225.677246 297.453613 225.677246 Q 296.739258 225.677246 296.277344 226.149902 Q 295.815430 226.622559 295.772461 227.213379 Z " fill="rgb(0, 0, 0)" fill-opacity="1.000000" />
<path d="M 306.698730 230.693848 Q 306.301270 230.924805 305.879639 231.040283 Q 305.458008 231.155762 305.017578 231.155762 Q 303.621094 231.155762 302.834229 230.317871 Q 302.047363 229.479980 302.047363 227.997559 Q 302.047363 226.515137 302.834229 225.677246 Q 303.621094 224.839355 305.017578 224.839355 Q 305.452637 224.839355 305.866211 224.952148 Q 306.279785 225.064941 306.698730 225.301270 L 306.698730 226.337891 Q 306.306641 225.988770 305.911865 225.833008 Q 305.517090 225.677246 305.017578 225.677246 Q 304.088379 225.677246 303.588867 226.278809 Q 303.089355 226.880371 303.089355 227.997559 Q 303.089355 229.109375 303.591553 229.713623 Q 304.093750 230.317871 305.017578 230.317871 Q 305.533203 230.317871 305.941406 230.159424 Q 306.349609 230.000977 306.698730 229.667969 Z " fill="rgb(0, 0, 0)" fill-opacity="1.000000" />
<path d="M 311.297852 223.276367 L 311.297852 224.984375 L 313.542969 224.984375 L 313.542969 225.752441 L 311.297852 225.752441 L 311.297852 229.018066 Q 311.297852 229.684082 311.550293 229.947266 Q 311.802734 230.210449 312.431152 230.210449 L 313.542969 230.210449 L 313.542969 231.000000 L 312.334473 231.000000 Q 311.222656 231.000000 310.766113 230.554199 Q 310.309570 230.108398 310.309570 229.018066 L 310.309570 225.752441 L 308.703613 225.752441 L 308.703613 224.984375 L 310.309570 224.984375 L 310.309570 223.276367 Z " fill="rgb(0, 0, 0)" fill-opacity="1.000000" />
<path d="M 318.308594 225.677246 Q 317.556641 225.677246 317.169922 226.262695 Q 316.783203 226.848145 316.783203 227.997559 Q 316.783203 229.141602 317.169922 229.729736 Q 317.556641 230.317871 318.308594 230.317871 Q 319.065918 230.317871 319.452637 229.729736 Q 319.839355 229.141602 319.839355 227.997559 Q 319.839355 226.848145 319.452637 226.262695 Q 319.065918 225.677246 318.308594 225.677246 Z M 318.308594 224.839355 Q 319.560059 224.839355 320.223389 225.650391 Q 320.886719 226.461426 320.886719 227.997559 Q 320.886719 229.539062 320.226074 230.347412 Q 319.565430 231.155762 318.308594 231.155762 Q 317.057129 231.155762 316.396484 230.347412 Q 315.735840 229.539062 315.735840 227.997559 Q 315.735840 226.461426 316.396484 225.650391 Q 317.057129 224.839355 318.308594 224.839355 Z " fill="rgb(0, 0, 0)" fill-opacity="1.000000" />
<path d="M 328.203613 226.225098 Q 327.886719 225.978027 327.559082 225.865234 Q 327.231445 225.752441 326.839355 225.752441 Q 325.915527 225.752441 325.426758 226.332520 Q 324.937988 226.912598 324.937988 228.008301 L 324.937988 231.000000 L 323.944336 231.000000 L 323.944336 224.984375 L 324.937988 224.984375 L 324.937988 226.160645 Q 325.185059 225.521484 325.697998 225.180420 Q 326.210938 224.839355 326.914551 224.839355 Q 327.279785 224.839355 327.596680 224.930664 Q 327.913574 225.021973 328.203613 225.215332 Z " fill="rgb(0, 0, 0)" fill-opacity="1.000000" />
<path d="M 337.219238 224.973633 L 341.585938 224.973633 L 341.585938 225.875977 L 338.132324 230.194336 L 341.585938 230.194336 L 341.585938 231.000000 L 337.090332 231.000000 L 337.090332 230.086914 L 340.543945 225.763184 L 337.219238 225.763184 Z " fill="rgb(0, 0, 0)" fill-opacity="1.000000" />
<path d="M 345.374023 229.061035 L 347.049805 229.061035 L 347.049805 230.484375 L 345.857422 232.799316 L 344.783203 232.804688 L 345.374023 230.484375 Z " fill="rgb(0, 0, 0)" fill-opacity="1.000000" />
<path d="M 357.000000 224.984375 L 357.977539 224.984375 L 359.024902 229.845215 L 359.884277 226.740723 L 360.727539 226.740723 L 361.597656 229.845215 L 362.645020 224.984375 L 363.622559 224.984375 L 362.215332 231.000000 L 361.270020 231.000000 L 360.308594 227.702148 L 359.352539 231.000000 L 358.407227 231.000000 Z " fill="rgb(0, 0, 0)" fill-opacity="1.000000" />
<path d="M 365.697266 225.005859 L 368.227051 225.005859 L 368.227051 230.231934 L 370.187500 230.231934 L 370.187500 231.000000 L 365.278320 231.000000 L 365.278320 230.231934 L 367.238770 230.231934 L 367.238770 225.773926 L 365.697266 225.773926 Z M 367.238770 222.669434 L 368.227051 222.669434 L 368.227051 223.915527 L 367.238770 223.915527 Z " fill="rgb(0, 0, 0)" fill-opacity="1.000000" />
<path d="M 374.297852 223.276367 L 374.297852 224.984375 L 376.542969 224.984375 L 376.542969 225.752441 L 374.297852 225.752441 L 374.297852 229.018066 Q 374.297852 229.684082 374.550293 229.947266 Q 374.802734 230.210449 375.431152 230.210449 L 376.542969 230.210449 L 376.542969 231.000000 L 375.334473 231.000000 Q 374.222656 231.000000 373.766113 230.554199 Q 373.309570 230.108398 373.309570 229.018066 L 373.309570 225.752441 L 371.703613 225.752441 L 371.703613 224.984375 L 373.309570 224.984375 L 373.309570 223.276367 Z " fill="rgb(0, 0, 0)" fill-opacity="1.000000" />
<path d="M 383.645020 227.272461 L 383.645020 231.000000 L 382.651367 231.000000 L 382.651367 227.272461 Q 382.651367 226.461426 382.366699 226.080078 Q 382.082031 225.698730 381.475098 225.698730 Q 380.782227 225.698730 380.408936 226.190186 Q 380.035645 226.681641 380.035645 227.600098 L 380.035645 231.000000 L 379.047363 231.000000 L 379.047363 222.642578 L 380.035645 222.642578 L 380.035645 225.886719 Q 380.298828 225.371094 380.750000 225.105225 Q 381.201172 224.839355 381.818848 224.839355 Q 382.737305 224.839355 383.191162 225.443604 Q 383.645020 226.047852 383.645020 227.272461 Z " fill="rgb(0, 0, 0)" fill-opacity="1.000000" />
<path d="M 393.219238 224.973633 L 397.585938 224.973633 L 397.585938 225.875977 L 394.132324 230.194336 L 397.585938 230.194336 L 397.585938 231.000000 L 393.090332 231.000000 L 393.090332 230.086914 L 396.543945 225.763184 L 393.219238 225.763184 Z " fill="rgb(0, 0, 0)" fill-opacity="1.000000" />
<path d="M 401.030273 224.044434 L 402.620117 224.044434 L 402.620117 226.982422 L 403.855469 226.982422 L 403.855469 227.412109 L 400.761719 227.412109 L 400.761719 226.982422 L 401.997070 226.982422 L 401.997070 224.474121 L 401.030273 224.474121 Z M 401.997070 222.733887 L 402.620117 222.733887 L 402.620117 223.432129 L 401.997070 223.432129 Z " fill="rgb(0, 0, 0)" fill-opacity="1.000000" />
<path d="M 414.632812 227.524902 Q 414.675781 228.072754 414.858398 228.583008 Q 415.094727 229.281250 415.502930 229.684082 Q 415.911133 230.086914 416.394531 230.086914 L 418.929688 230.086914 L 418.929688 231.000000 L 416.394531 231.000000 Q 415.664062 231.000000 415.041016 230.473633 Q 414.417969 229.947266 414.058105 229.042236 Q 413.698242 228.137207 413.698242 227.068359 Q 413.698242 225.999512 414.058105 225.094482 Q 414.417969 224.189453 415.041016 223.663086 Q 415.664062 223.136719 416.394531 223.136719 L 418.929688 223.136719 L 418.929688 224.049805 L 416.394531 224.049805 Q 415.900391 224.049805 415.502930 224.452637 Q 415.083984 224.866211 414.858398 225.553711 Q 414.675781 226.063965 414.632812 226.611816 L 418.918945 226.611816 L 418.918945 227.524902 Z " fill="rgb(0, 0, 0)" fill-opacity="1.000000" />
<path d="M 431.082031 227.213379 Q 431.500977 227.320801 431.796387 227.618896 Q 432.091797 227.916992 432.532227 228.808594 L 433.622559 231.000000 L 432.457031 231.000000 L 431.500977 228.975098 Q 431.087402 228.110352 430.757080 227.860596 Q 430.426758 227.610840 429.895020 227.610840 L 428.858398 227.610840 L 428.858398 231.000000 L 427.768066 231.000000 L 427.768066 222.980957 L 430.002441 222.980957 Q 431.323730 222.980957 432.027344 223.577148 Q 432.730957 224.173340 432.730957 225.301270 Q 432.730957 226.096191 432.298584 226.598389 Q 431.866211 227.100586 431.082031 227.213379 Z M 428.858398 223.872559 L 428.858398 226.719238 L 430.045410 226.719238 Q 430.824219 226.719238 431.205566 226.370117 Q 431.586914 226.020996 431.586914 225.301270 Q 431.586914 224.608398 431.181396 224.240479 Q 430.775879 223.872559 430.002441 223.872559 Z " fill="rgb(0, 0, 0)" fill-opacity="1.000000" />
<path d="M 324.878906 195.319336 L 324.878906 181.300781 L 325.738281 181.300781 L 325.738281 195.319336 Z " fill="rgb(0, 0, 0)" fill-opacity="1.000000" />
<path d="M 324.878906 202.335938 L 324.878906 194.300781 L 325.738281 194.300781 L 325.738281 201.412109 L 328.729980 201.412109 L 328.729980 202.335938 Z " fill="rgb(0, 0, 0)" fill-opacity="1.000000" />
<path d="M 328.892578 202.335938 L 328.892578 201.412109 L 335.729980 201.412109 L 335.729980 202.335938 Z " fill="rgb(0, 0, 0)" fill-opacity="1.000000" />
<path d="M 335.892578 202.335938 L 335.892578 201.412109 L 342.729980 201.412109 L 342.729980 202.335938 Z " fill="rgb(0, 0, 0)" fill-opacity="1.000000" />
<path d="M 342.892578 202.335938 L 342.892578 201.412109 L 349.729980 201.412109 L 349.729980 202.335938 Z " fill="rgb(0, 0, 0)" fill-opacity="1.000000" />
<path d="M 349.892578 202.335938 L 349.892578 201.412109 L 352.878906 201.412109 L 352.878906 194.300781 L 353.738281 194.300781 L 353.738281 202.335938 Z " fill="rgb(0, 0, 0)" fill-opacity="1.000000" />
<path d="M 337.219238 185.973633 L 341.585938 185.973633 L 341.585938 186.875977 L 338.132324 191.194336 L 341.585938 191.194336 L 341.585938 192.000000 L 337.090332 192.000000 L 337.090332 191.086914 L 340.543945 186.763184 L 337.219238 186.763184 Z " fill="rgb(0, 0, 0)" fill-opacity="1.000000" />
<path d="M 347.898438 186.376465 L 347.898438 188.412109 L 347.275391 188.412109 L 347.275391 186.397949 Q 347.275391 185.919922 347.065918 185.680908 Q 346.856445 185.441895 346.437500 185.441895 Q 345.932617 185.441895 345.642578 185.729248 Q 345.352539 186.016602 345.352539 186.510742 L 345.352539 188.412109 L 344.724121 188.412109 L 344.724121 185.044434 L 345.352539 185.044434 L 345.352539 185.565430 Q 345.572754 185.264648 345.876221 185.114258 Q 346.179688 184.963867 346.577148 184.963867 Q 347.227051 184.963867 347.562744 185.323730 Q 347.898438 185.683594 347.898438 186.376465 Z " fill="rgb(0, 0, 0)" fill-opacity="1.000000" />
<path d="M 352.878906 195.319336 L 352.878906 181.300781 L 353.738281 181.300781 L 353.738281 195.319336 Z " fill="rgb(0, 0, 0)" fill-opacity="1.000000" />
<path d="M 111.892578 176.335938 L 111.892578 175.412109 L 118.729980 175.412109 L 118.729980 176.335938 Z " fill="rgb(0, 0, 0)" fill-opacity="1.000000" />
<path d="M 118.892578 176.335938 L 118.892578 175.412109 L 125.729980 175.412109 L 125.729980 176.335938 Z " fill="rgb(0, 0, 0)" fill-opacity="1.000000" />
<path d="M 125.892578 176.335938 L 125.892578 175.412109 L 132.729980 175.412109 L 132.729980 176.335938 Z " fill="rgb(0, 0, 0)" fill-opacity="1.000000" />
<path d="M 132.892578 176.335938 L 132.892578 175.412109 L 139.729980 175.412109 L 139.729980 176.335938 Z " fill="rgb(0, 0, 0)" fill-opacity="1.000000" />
<path d="M 139.892578 176.335938 L 139.892578 175.412109 L 146.729980 175.412109 L 146.729980 176.335938 Z " fill="rgb(0, 0, 0)" fill-opacity="1.000000" />
<path d="M 146.892578 176.335938 L 146.892578 175.412109 L 153.729980 175.412109 L 153.729980 176.335938 Z " fill="rgb(0, 0, 0)" fill-opacity="1.000000" />
<path d="M 153.892578 176.335938 L 153.892578 175.412109 L 160.729980 175.412109 L 160.729980 176.335938 Z " fill="rgb(0, 0, 0)" fill-opacity="1.000000" />
<path d="M 160.892578 176.335938 L 160.892578 175.412109 L 167.729980 175.412109 L 167.729980 176.335938 Z " fill="rgb(0, 0, 0)" fill-opacity="1.000000" />
<path d="M 167.892578 176.335938 L 167.892578 175.412109 L 174.729980 175.412109 L 174.729980 176.335938 Z " fill="rgb(0, 0, 0)" fill-opacity="1.000000" />
<path d="M 174.892578 176.335938 L 174.892578 175.412109 L 181.729980 175.412109 L 181.729980 176.335938 Z " fill="rgb(0, 0, 0)" fill-opacity="1.000000" />
<path d="M 181.892578 176.335938 L 181.892578 175.412109 L 188.729980 175.412109 L 188.729980 176.335938 Z " fill="rgb(0, 0, 0)" fill-opacity="1.000000" />
<path d="M 188.892578 176.335938 L 188.892578 175.412109 L 195.729980 175.412109 L 195.729980 176.335938 Z " fill="rgb(0, 0, 0)" fill-opacity="1.000000" />
<path d="M 195.892578 176.335938 L 195.892578 175.412109 L 202.729980 175.412109 L 202.729980 176.335938 Z " fill="rgb(0, 0, 0)" fill-opacity="1.000000" />
<path d="M 202.892578 176.335938 L 202.892578 175.412109 L 209.729980 175.412109 L 209.729980 176.335938 Z " fill="rgb(0, 0, 0)" fill-opacity="1.000000" />
<path d="M 209.892578 176.335938 L 209.892578 175.412109 L 216.729980 175.412109 L 216.729980 176.335938 Z " fill="rgb(0, 0, 0)" fill-opacity="1.000000" />
<path d="M 216.892578 176.335938 L 216.892578 175.412109 L 223.729980 175.412109 L 223.729980 176.335938 Z " fill="rgb(0, 0, 0)" fill-opacity="1.000000" />
<path d="M 223.892578 176.335938 L 223.892578 175.412109 L 230.729980 175.412109 L 230.729980 176.335938 Z " fill="rgb(0, 0, 0)" fill-opacity="1.000000" />
<path d="M 230.892578 176.335938 L 230.892578 175.412109 L 233.878906 175.412109 L 233.878906 168.300781 L 234.738281 168.300781 L 234.738281 176.335938 Z " fill="rgb(0, 0, 0)" fill-opacity="1.000000" />
<path d="M 324.878906 182.319336 L 324.878906 168.300781 L 325.738281 168.300781 L 325.738281 182.319336 Z " fill="rgb(0, 0, 0)" fill-opacity="1.000000" />
<path d="M 338.089355 176.830078 L 339.979980 176.830078 L 339.979980 179.000000 L 338.089355 179.000000 Z " fill="rgb(0, 0, 0)" fill-opacity="1.000000" />
<path d="M 352.878906 182.319336 L 352.878906 168.300781 L 353.738281 168.300781 L 353.738281 182.319336 Z " fill="rgb(0, 0, 0)" fill-opacity="1.000000" />
<path d="M 443.878906 176.335938 L 443.878906 168.300781 L 444.738281 168.300781 L 444.738281 175.412109 L 447.729980 175.412109 L 447.729980 176.335938 Z " fill="rgb(0, 0, 0)" fill-opacity="1.000000" />
<path d="M 447.892578 176.335938 L 447.892578 175.412109 L 454.729980 175.412109 L 454.729980 176.335938 Z " fill="rgb(0, 0, 0)" fill-opacity="1.000000" />
<path d="M 454.892578 176.335938 L 454.892578 175.412109 L 461.729980 175.412109 L 461.729980 176.335938 Z " fill="rgb(0, 0, 0)" fill-opacity="1.000000" />
<path d="M 461.892578 176.335938 L 461.892578 175.412109 L 468.729980 175.412109 L 468.729980 176.335938 Z " fill="rgb(0, 0, 0)" fill-opacity="1.000000" />
<path d="M 468.892578 176.335938 L 468.892578 175.412109 L 475.729980 175.412109 L 475.729980 176.335938 Z " fill="rgb(0, 0, 0)" fill-opacity="1.000000" />
<path d="M 475.892578 176.335938 L 475.892578 175.412109 L 482.729980 175.412109 L 482.729980 176.335938 Z " fill="rgb(0, 0, 0)" fill-opacity="1.000000" />
<path d="M 482.892578 176.335938 L 482.892578 175.412109 L 489.729980 175.412109 L 489.729980 176.335938 Z " fill="rgb(0, 0, 0)" fill-opacity="1.000000" />
<path d="M 489.892578 176.335938 L 489.892578 175.412109 L 496.729980 175.412109 L 496.729980 176.335938 Z " fill="rgb(0, 0, 0)" fill-opacity="1.000000" />
<path d="M 496.892578 176.335938 L 496.892578 175.412109 L 503.729980 175.412109 L 503.729980 176.335938 Z " fill="rgb(0, 0, 0)" fill-opacity="1.000000" />
<path d="M 503.892578 176.335938 L 503.892578 175.412109 L 510.729980 175.412109 L 510.729980 176.335938 Z " fill="rgb(0, 0, 0)" fill-opacity="1.000000" />
<path d="M 510.892578 176.335938 L 510.892578 175.412109 L 517.729980 175.412109 L 517.729980 176.335938 Z " fill="rgb(0, 0, 0)" fill-opacity="1.000000" />
<path d="M 517.892578 176.335938 L 517.892578 175.412109 L 524.729980 175.412109 L 524.729980 176.335938 Z " fill="rgb(0, 0, 0)" fill-opacity="1.000000" />
<path d="M 524.892578 176.335938 L 524.892578 175.412109 L 531.729980 175.412109 L 531.729980 176.335938 Z " fill="rgb(0, 0, 0)" fill-opacity="1.000000" />
<path d="M 531.892578 176.335938 L 531.892578 175.412109 L 538.729980 175.412109 L 538.729980 176.335938 Z " fill="rgb(0, 0, 0)" fill-opacity="1.000000" />
<path d="M 538.892578 176.335938 L 538.892578 175.412109 L 545.729980 175.412109 L 545.729980 176.335938 Z " fill="rgb(0, 0, 0)" fill-opacity="1.000000" />
<path d="M 545.892578 176.335938 L 545.892578 175.412109 L 552.729980 175.412109 L 552.729980 176.335938 Z " fill="rgb(0, 0, 0)" fill-opacity="1.000000" />
<path d="M 552.892578 176.335938 L 552.892578 175.412109 L 559.729980 175.412109 L 559.729980 176.335938 Z " fill="rgb(0, 0, 0)" fill-opacity="1.000000" />
<path d="M 559.892578 176.335938 L 559.892578 175.412109 L 566.729980 175.412109 L 566.729980 176.335938 Z " fill="rgb(0, 0, 0)" fill-opacity="1.000000" />
<path d="M 566.892578 176.335938 L 566.892578 175.412109 L 569.878906 175.412109 L 569.878906 168.300781 L 570.738281 168.300781 L 570.738281 176.335938 Z " fill="rgb(0, 0, 0)" fill-opacity="1.000000" />
<path d="M 233.878906 169.319336 L 233.878906 155.300781 L 234.738281 155.300781 L 234.738281 169.319336 Z " fill="rgb(0, 0, 0)" fill-opacity="1.000000" />
<path d="M 324.878906 169.319336 L 324.878906 155.300781 L 325.738281 155.300781 L 325.738281 169.319336 Z " fill="rgb(0, 0, 0)" fill-opacity="1.000000" />
<path d="M 338.089355 163.830078 L 339.979980 163.830078 L 339.979980 166.000000 L 338.089355 166.000000 Z " fill="rgb(0, 0, 0)" fill-opacity="1.000000" />
<path d="M 352.878906 169.319336 L 352.878906 155.300781 L 353.738281 155.300781 L 353.738281 169.319336 Z " fill="rgb(0, 0, 0)" fill-opacity="1.000000" />
<path d="M 443.878906 169.319336 L 443.878906 155.300781 L 444.738281 155.300781 L 444.738281 169.319336 Z " fill="rgb(0, 0, 0)" fill-opacity="1.000000" />
<path d="M 569.878906 169.319336 L 569.878906 155.300781 L 570.738281 155.300781 L 570.738281 169.319336 Z " fill="rgb(0, 0, 0)" fill-opacity="1.000000" />
<path d="M 107.878906 156.319336 L 107.878906 142.300781 L 108.738281 142.300781 L 108.738281 156.319336 Z " fill="rgb(0, 0, 0)" fill-opacity="1.000000" />
<path d="M 233.878906 156.319336 L 233.878906 142.300781 L 234.738281 142.300781 L 234.738281 156.319336 Z " fill="rgb(0, 0, 0)" fill-opacity="1.000000" />
<path d="M 324.878906 156.319336 L 324.878906 142.300781 L 325.738281 142.300781 L 325.738281 156.319336 Z " fill="rgb(0, 0, 0)" fill-opacity="1.000000" />
<path d="M 338.089355 150.830078 L 339.979980 150.830078 L 339.979980 153.000000 L 338.089355 153.000000 Z " fill="rgb(0, 0, 0)" fill-opacity="1.000000" />
<path d="M 352.878906 156.319336 L 352.878906 142.300781 L 353.738281 142.300781 L 353.738281 156.319336 Z " fill="rgb(0, 0, 0)" fill-opacity="1.000000" />
<path d="M 443.878906 156.319336 L 443.878906 142.300781 L 444.738281 142.300781 L 444.738281 156.319336 Z " fill="rgb(0, 0, 0)" fill-opacity="1.000000" />
<path d="M 569.878906 156.319336 L 569.878906 142.300781 L 570.738281 142.300781 L 570.738281 156.319336 Z " fill="rgb(0, 0, 0)" fill-opacity="1.000000" />
<path d="M 637.461914 144.980957 L 638.627441 144.980957 L 640.389160 148.004883 L 642.183105 144.980957 L 643.348633 144.980957 L 640.947754 148.751465 L 643.520508 153.000000 L 642.354980 153.000000 L 640.389160 149.546387 L 638.267578 153.000000 L 637.096680 153.000000 L 639.782227 148.751465 Z " fill="rgb(0, 0, 0)" fill-opacity="1.000000" />
<path d="M 647.985352 144.631836 L 647.985352 147.978027 L 646.782227 147.978027 L 646.782227 144.631836 Z " fill="rgb(0, 0, 0)" fill-opacity="1.000000" />
<path d="M 6.892578 137.797852 L 6.892578 135.950195 L 13.729980 135.950195 L 13.729980 137.797852 Z " fill="rgb(0, 0, 0)" fill-opacity="1.000000" />
<path d="M 13.892578 137.797852 L 13.892578 135.950195 L 20.729980 135.950195 L 20.729980 137.797852 Z " fill="rgb(0, 0, 0)" fill-opacity="1.000000" />
<path d="M 20.892578 137.797852 L 20.892578 135.950195 L 27.729980 135.950195 L 27.729980 137.797852 Z " fill="rgb(0, 0, 0)" fill-opacity="1.000000" />
<path d="M 27.892578 137.797852 L 27.892578 135.950195 L 34.729980 135.950195 L 34.729980 137.797852 Z " fill="rgb(0, 0, 0)" fill-opacity="1.000000" />
<path d="M 34.892578 137.797852 L 34.892578 135.950195 L 41.729980 135.950195 L 41.729980 137.797852 Z " fill="rgb(0, 0, 0)" fill-opacity="1.000000" />
<path d="M 41.892578 137.797852 L 41.892578 135.950195 L 48.729980 135.950195 L 48.729980 137.797852 Z " fill="rgb(0, 0, 0)" fill-opacity="1.000000" />
<path d="M 48.892578 137.797852 L 48.892578 135.950195 L 55.729980 135.950195 L 55.729980 137.797852 Z " fill="rgb(0, 0, 0)" fill-opacity="1.000000" />
<path d="M 55.892578 137.797852 L 55.892578 135.950195 L 62.729980 135.950195 L 62.729980 137.797852 Z " fill="rgb(0, 0, 0)" fill-opacity="1.000000" />
<path d="M 62.892578 137.797852 L 62.892578 135.950195 L 65.449219 135.950195 L 65.449219 129.300781 L 67.167969 129.300781 L 67.167969 137.797852 Z " fill="rgb(0, 0, 0)" fill-opacity="1.000000" />
<path d="M 107.878906 143.319336 L 107.878906 129.300781 L 108.738281 129.300781 L 108.738281 143.319336 Z " fill="rgb(0, 0, 0)" fill-opacity="1.000000" />
<path d="M 233.878906 143.319336 L 233.878906 129.300781 L 234.738281 129.300781 L 234.738281 143.319336 Z " fill="rgb(0, 0, 0)" fill-opacity="1.000000" />
<path d="M 324.878906 143.319336 L 324.878906 129.300781 L 325.738281 129.300781 L 325.738281 143.319336 Z " fill="rgb(0, 0, 0)" fill-opacity="1.000000" />
<path d="M 338.089355 137.830078 L 339.979980 137.830078 L 339.979980 140.000000 L 338.089355 140.000000 Z " fill="rgb(0, 0, 0)" fill-opacity="1.000000" />
<path d="M 352.878906 143.319336 L 352.878906 129.300781 L 353.738281 129.300781 L 353.738281 143.319336 Z " fill="rgb(0, 0, 0)" fill-opacity="1.000000" />
<path d="M 443.878906 143.319336 L 443.878906 129.300781 L 444.738281 129.300781 L 444.738281 143.319336 Z " fill="rgb(0, 0, 0)" fill-opacity="1.000000" />
<path d="M 569.878906 143.319336 L 569.878906 129.300781 L 570.738281 129.300781 L 570.738281 143.319336 Z " fill="rgb(0, 0, 0)" fill-opacity="1.000000" />
<path d="M 611.449219 137.797852 L 611.449219 129.300781 L 613.167969 129.300781 L 613.167969 135.950195 L 615.729980 135.950195 L 615.729980 137.797852 Z " fill="rgb(0, 0, 0)" fill-opacity="1.000000" />
<path d="M 615.892578 137.797852 L 615.892578 135.950195 L 622.729980 135.950195 L 622.729980 137.797852 Z " fill="rgb(0, 0, 0)" fill-opacity="1.000000" />
<path d="M 622.892578 137.797852 L 622.892578 135.950195 L 629.729980 135.950195 L 629.729980 137.797852 Z " fill="rgb(0, 0, 0)" fill-opacity="1.000000" />
<path d="M 629.892578 137.797852 L 629.892578 135.950195 L 636.729980 135.950195 L 636.729980 137.797852 Z " fill="rgb(0, 0, 0)" fill-opacity="1.000000" />
<path d="M 636.892578 137.797852 L 636.892578 135.950195 L 643.729980 135.950195 L 643.729980 137.797852 Z " fill="rgb(0, 0, 0)" fill-opacity="1.000000" />
<path d="M 643.892578 137.797852 L 643.892578 135.950195 L 650.729980 135.950195 L 650.729980 137.797852 Z " fill="rgb(0, 0, 0)" fill-opacity="1.000000" />
<path d="M 650.892578 137.797852 L 650.892578 135.950195 L 657.729980 135.950195 L 657.729980 137.797852 Z " fill="rgb(0, 0, 0)" fill-opacity="1.000000" />
<path d="M 657.892578 137.797852 L 657.892578 135.950195 L 664.729980 135.950195 L 664.729980 137.797852 Z " fill="rgb(0, 0, 0)" fill-opacity="1.000000" />
<path d="M 664.892578 137.797852 L 664.892578 135.950195 L 671.729980 135.950195 L 671.729980 137.797852 Z " fill="rgb(0, 0, 0)" fill-opacity="1.000000" />
<path d="M 671.892578 137.797852 L 671.892578 135.950195 L 674.449219 135.950195 L 674.449219 129.300781 L 676.167969 129.300781 L 676.167969 137.797852 Z " fill="rgb(0, 0, 0)" fill-opacity="1.000000" />
<path d="M 8.670410 100.978516 Q 7.032227 100.033203 7.032227 98.142578 Q 7.032227 96.251953 8.670410 95.306641 Q 9.486816 94.833984 10.308594 94.833984 Q 11.125000 94.833984 11.946777 95.306641 Q 13.590332 96.251953 13.590332 98.142578 Q 13.590332 100.033203 11.946777 100.978516 Q 11.125000 101.451172 10.308594 101.451172 Q 9.486816 101.451172 8.670410 100.978516 Z " fill="rgb(0, 0, 0)" fill-opacity="1.000000" />
<path d="M 8.670410 113.978516 Q 7.032227 113.033203 7.032227 111.142578 Q 7.032227 109.251953 8.670410 108.306641 Q 9.486816 107.833984 10.308594 107.833984 Q 11.125000 107.833984 11.946777 108.306641 Q 13.590332 109.251953 13.590332 111.142578 Q 13.590332 113.033203 11.946777 113.978516 Q 11.125000 114.451172 10.308594 114.451172 Q 9.486816 114.451172 8.670410 113.978516 Z " fill="rgb(0, 0, 0)" fill-opacity="1.000000" />
<path d="M 8.670410 126.978516 Q 7.032227 126.033203 7.032227 124.142578 Q 7.032227 122.251953 8.670410 121.306641 Q 9.486816 120.833984 10.308594 120.833984 Q 11.125000 120.833984 11.946777 121.306641 Q 13.590332 122.251953 13.590332 124.142578 Q 13.590332 126.033203 11.946777 126.978516 Q 11.125000 127.451172 10.308594 127.451172 Q 9.486816 127.451172 8.670410 126.978516 Z " fill="rgb(0, 0, 0)" fill-opacity="1.000000" />
<path d="M 15.670410 100.978516 Q 14.032227 100.033203 14.032227 98.142578 Q 14.032227 96.251953 15.670410 95.306641 Q 16.486816 94.833984 17.308594 94.833984 Q 18.125000 94.833984 18.946777 95.306641 Q 20.590332 96.251953 20.590332 98.142578 Q 20.590332 100.033203 18.946777 100.978516 Q 18.125000 101.451172 17.308594 101.451172 Q 16.486816 101.451172 15.670410 100.978516 Z " fill="rgb(0, 0, 0)" fill-opacity="1.000000" />
<path d="M 15.670410 113.978516 Q 14.032227 113.033203 14.032227 111.142578 Q 14.032227 109.251953 15.670410 108.306641 Q 16.486816 107.833984 17.308594 107.833984 Q 18.125000 107.833984 18.946777 108.306641 Q 20.590332 109.251953 20.590332 111.142578 Q 20.590332 113.033203 18.946777 113.978516 Q 18.125000 114.451172 17.308594 114.451172 Q 16.486816 114.451172 15.670410 113.978516 Z " fill="rgb(0, 0, 0)" fill-opacity="1.000000" />
<path d="M 15.670410 126.978516 Q 14.032227 126.033203 14.032227 124.142578 Q 14.032227 122.251953 15.670410 121.306641 Q 16.486816 120.833984 17.308594 120.833984 Q 18.125000 120.833984 18.946777 121.306641 Q 20.590332 122.251953 20.590332 124.142578 Q 20.590332 126.033203 18.946777 126.978516 Q 18.125000 127.451172 17.308594 127.451172 Q 16.486816 127.451172 15.670410 126.978516 Z " fill="rgb(0, 0, 0)" fill-opacity="1.000000" />
<path d="M 22.670410 100.978516 Q 21.032227 100.033203 21.032227 98.142578 Q 21.032227 96.251953 22.670410 95.306641 Q 23.486816 94.833984 24.308594 94.833984 Q 25.125000 94.833984 25.946777 95.306641 Q 27.590332 96.251953 27.590332 98.142578 Q 27.590332 100.033203 25.946777 100.978516 Q 25.125000 101.451172 24.308594 101.451172 Q 23.486816 101.451172 22.670410 100.978516 Z " fill="rgb(0, 0, 0)" fill-opacity="1.000000" />
<path d="M 22.670410 113.978516 Q 21.032227 113.033203 21.032227 111.142578 Q 21.032227 109.251953 22.670410 108.306641 Q 23.486816 107.833984 24.308594 107.833984 Q 25.125000 107.833984 25.946777 108.306641 Q 27.590332 109.251953 27.590332 111.142578 Q 27.590332 113.033203 25.946777 113.978516 Q 25.125000 114.451172 24.308594 114.451172 Q 23.486816 114.451172 22.670410 113.978516 Z " fill="rgb(0, 0, 0)" fill-opacity="1.000000" />
<path d="M 22.670410 126.978516 Q 21.032227 126.033203 21.032227 124.142578 Q 21.032227 122.251953 22.670410 121.306641 Q 23.486816 120.833984 24.308594 120.833984 Q 25.125000 120.833984 25.946777 121.306641 Q 27.590332 122.251953 27.590332 124.142578 Q 27.590332 126.033203 25.946777 126.978516 Q 25.125000 127.451172 24.308594 127.451172 Q 23.486816 127.451172 22.670410 126.978516 Z " fill="rgb(0, 0, 0)" fill-opacity="1.000000" />
<path d="M 29.670410 100.978516 Q 28.032227 100.033203 28.032227 98.142578 Q 28.032227 96.251953 29.670410 95.306641 Q 30.486816 94.833984 31.308594 94.833984 Q 32.125000 94.833984 32.946777 95.306641 Q 34.590332 96.251953 34.590332 98.142578 Q 34.590332 100.033203 32.946777 100.978516 Q 32.125000 101.451172 31.308594 101.451172 Q 30.486816 101.451172 29.670410 100.978516 Z " fill="rgb(0, 0, 0)" fill-opacity="1.000000" />
<path d="M 29.670410 113.978516 Q 28.032227 113.033203 28.032227 111.142578 Q 28.032227 109.251953 29.670410 108.306641 Q 30.486816 107.833984 31.308594 107.833984 Q 32.125000 107.833984 32.946777 108.306641 Q 34.590332 109.251953 34.590332 111.142578 Q 34.590332 113.033203 32.946777 113.978516 Q 32.125000 114.451172 31.308594 114.451172 Q 30.486816 114.451172 29.670410 113.978516 Z " fill="rgb(0, 0, 0)" fill-opacity="1.000000" />
<path d="M 29.670410 126.978516 Q 28.032227 126.033203 28.032227 124.142578 Q 28.032227 122.251953 29.670410 121.306641 Q 30.486816 120.833984 31.308594 120.833984 Q 32.125000 120.833984 32.946777 121.306641 Q 34.590332 122.251953 34.590332 124.142578 Q 34.590332 126.033203 32.946777 126.978516 Q 32.125000 127.451172 31.308594 127.451172 Q 30.486816 127.451172 29.670410 126.978516 Z " fill="rgb(0, 0, 0)" fill-opacity="1.000000" />
<path d="M 36.670410 100.978516 Q 35.032227 100.033203 35.032227 98.142578 Q 35.032227 96.251953 36.670410 95.306641 Q 37.486816 94.833984 38.308594 94.833984 Q 39.125000 94.833984 39.946777 95.306641 Q 41.590332 96.251953 41.590332 98.142578 Q 41.590332 100.033203 39.946777 100.978516 Q 39.125000 101.451172 38.308594 101.451172 Q 37.486816 101.451172 36.670410 100.978516 Z " fill="rgb(0, 0, 0)" fill-opacity="1.000000" />
<path d="M 36.670410 113.978516 Q 35.032227 113.033203 35.032227 111.142578 Q 35.032227 109.251953 36.670410 108.306641 Q 37.486816 107.833984 38.308594 107.833984 Q 39.125000 107.833984 39.946777 108.306641 Q 41.590332 109.251953 41.590332 111.142578 Q 41.590332 113.033203 39.946777 113.978516 Q 39.125000 114.451172 38.308594 114.451172 Q 37.486816 114.451172 36.670410 113.978516 Z " fill="rgb(0, 0, 0)" fill-opacity="1.000000" />
<path d="M 36.670410 126.978516 Q 35.032227 126.033203 35.032227 124.142578 Q 35.032227 122.251953 36.670410 121.306641 Q 37.486816 120.833984 38.308594 120.833984 Q 39.125000 120.833984 39.946777 121.306641 Q 41.590332 122.251953 41.590332 124.142578 Q 41.590332 126.033203 39.946777 126.978516 Q 39.125000 127.451172 38.308594 127.451172 Q 37.486816 127.451172 36.670410 126.978516 Z " fill="rgb(0, 0, 0)" fill-opacity="1.000000" />
<path d="M 43.670410 100.978516 Q 42.032227 100.033203 42.032227 98.142578 Q 42.032227 96.251953 43.670410 95.306641 Q 44.486816 94.833984 45.308594 94.833984 Q 46.125000 94.833984 46.946777 95.306641 Q 48.590332 96.251953 48.590332 98.142578 Q 48.590332 100.033203 46.946777 100.978516 Q 46.125000 101.451172 45.308594 101.451172 Q 44.486816 101.451172 43.670410 100.978516 Z " fill="rgb(0, 0, 0)" fill-opacity="1.000000" />
<path d="M 43.670410 113.978516 Q 42.032227 113.033203 42.032227 111.142578 Q 42.032227 109.251953 43.670410 108.306641 Q 44.486816 107.833984 45.308594 107.833984 Q 46.125000 107.833984 46.946777 108.306641 Q 48.590332 109.251953 48.590332 111.142578 Q 48.590332 113.033203 46.946777 113.978516 Q 46.125000 114.451172 45.308594 114.451172 Q 44.486816 114.451172 43.670410 113.978516 Z " fill="rgb(0, 0, 0)" fill-opacity="1.000000" />
<path d="M 43.670410 126.978516 Q 42.032227 126.033203 42.032227 124.142578 Q 42.032227 122.251953 43.670410 121.306641 Q 44.486816 120.833984 45.308594 120.833984 Q 46.125000 120.833984 46.946777 121.306641 Q 48.590332 122.251953 48.590332 124.142578 Q 48.590332 126.033203 46.946777 126.978516 Q 46.125000 127.451172 45.308594 127.451172 Q 44.486816 127.451172 43.670410 126.978516 Z " fill="rgb(0, 0, 0)" fill-opacity="1.000000" />
<path d="M 50.670410 100.978516 Q 49.032227 100.033203 49.032227 98.142578 Q 49.032227 96.251953 50.670410 95.306641 Q 51.486816 94.833984 52.308594 94.833984 Q 53.125000 94.833984 53.946777 95.306641 Q 55.590332 96.251953 55.590332 98.142578 Q 55.590332 100.033203 53.946777 100.978516 Q 53.125000 101.451172 52.308594 101.451172 Q 51.486816 101.451172 50.670410 100.978516 Z " fill="rgb(0, 0, 0)" fill-opacity="1.000000" />
<path d="M 50.670410 113.978516 Q 49.032227 113.033203 49.032227 111.142578 Q 49.032227 109.251953 50.670410 108.306641 Q 51.486816 107.833984 52.308594 107.833984 Q 53.125000 107.833984 53.946777 108.306641 Q 55.590332 109.251953 55.590332 111.142578 Q 55.590332 113.033203 53.946777 113.978516 Q 53.125000 114.451172 52.308594 114.451172 Q 51.486816 114.451172 50.670410 113.978516 Z " fill="rgb(0, 0, 0)" fill-opacity="1.000000" />
<path d="M 50.670410 126.978516 Q 49.032227 126.033203 49.032227 124.142578 Q 49.032227 122.251953 50.670410 121.306641 Q 51.486816 120.833984 52.308594 120.833984 Q 53.125000 120.833984 53.946777 121.306641 Q 55.590332 122.251953 55.590332 124.142578 Q 55.590332 126.033203 53.946777 126.978516 Q 53.125000 127.451172 52.308594 127.451172 Q 51.486816 127.451172 50.670410 126.978516 Z " fill="rgb(0, 0, 0)" fill-opacity="1.000000" />
<path d="M 57.670410 100.978516 Q 56.032227 100.033203 56.032227 98.142578 Q 56.032227 96.251953 57.670410 95.306641 Q 58.486816 94.833984 59.308594 94.833984 Q 60.125000 94.833984 60.946777 95.306641 Q 62.590332 96.251953 62.590332 98.142578 Q 62.590332 100.033203 60.946777 100.978516 Q 60.125000 101.451172 59.308594 101.451172 Q 58.486816 101.451172 57.670410 100.978516 Z " fill="rgb(0, 0, 0)" fill-opacity="1.000000" />
<path d="M 57.670410 113.978516 Q 56.032227 113.033203 56.032227 111.142578 Q 56.032227 109.251953 57.670410 108.306641 Q 58.486816 107.833984 59.308594 107.833984 Q 60.125000 107.833984 60.946777 108.306641 Q 62.590332 109.251953 62.590332 111.142578 Q 62.590332 113.033203 60.946777 113.978516 Q 60.125000 114.451172 59.308594 114.451172 Q 58.486816 114.451172 57.670410 113.978516 Z " fill="rgb(0, 0, 0)" fill-opacity="1.000000" />
<path d="M 57.670410 126.978516 Q 56.032227 126.033203 56.032227 124.142578 Q 56.032227 122.251953 57.670410 121.306641 Q 58.486816 120.833984 59.308594 120.833984 Q 60.125000 120.833984 60.946777 121.306641 Q 62.590332 122.251953 62.590332 124.142578 Q 62.590332 126.033203 60.946777 126.978516 Q 60.125000 127.451172 59.308594 127.451172 Q 58.486816 127.451172 57.670410 126.978516 Z " fill="rgb(0, 0, 0)" fill-opacity="1.000000" />
<path d="M 65.449219 104.319336 L 65.449219 90.300781 L 67.167969 90.300781 L 67.167969 104.319336 Z " fill="rgb(0, 0, 0)" fill-opacity="1.000000" />
<path d="M 65.449219 117.319336 L 65.449219 103.300781 L 67.167969 103.300781 L 67.167969 117.319336 Z " fill="rgb(0, 0, 0)" fill-opacity="1.000000" />
<path d="M 65.449219 130.319336 L 65.449219 116.300781 L 67.167969 116.300781 L 67.167969 130.319336 Z " fill="rgb(0, 0, 0)" fill-opacity="1.000000" />
<path d="M 69.892578 111.335938 L 69.892578 110.412109 L 76.729980 110.412109 L 76.729980 111.335938 Z " fill="rgb(0, 0, 0)" fill-opacity="1.000000" />
<path d="M 76.892578 111.335938 L 76.892578 110.412109 L 83.729980 110.412109 L 83.729980 111.335938 Z " fill="rgb(0, 0, 0)" fill-opacity="1.000000" />
<path d="M 83.892578 111.335938 L 83.892578 110.412109 L 90.729980 110.412109 L 90.729980 111.335938 Z " fill="rgb(0, 0, 0)" fill-opacity="1.000000" />
<path d="M 90.892578 111.335938 L 90.892578 110.412109 L 97.729980 110.412109 L 97.729980 111.335938 Z " fill="rgb(0, 0, 0)" fill-opacity="1.000000" />
<path d="M 107.878906 130.319336 L 107.878906 116.300781 L 108.738281 116.300781 L 108.738281 130.319336 Z " fill="rgb(0, 0, 0)" fill-opacity="1.000000" />
<path d="M 233.878906 130.319336 L 233.878906 116.300781 L 234.738281 116.300781 L 234.738281 130.319336 Z " fill="rgb(0, 0, 0)" fill-opacity="1.000000" />
<path d="M 324.878906 130.319336 L 324.878906 116.300781 L 325.738281 116.300781 L 325.738281 130.319336 Z " fill="rgb(0, 0, 0)" fill-opacity="1.000000" />
<path d="M 338.089355 124.830078 L 339.979980 124.830078 L 339.979980 127.000000 L 338.089355 127.000000 Z " fill="rgb(0, 0, 0)" fill-opacity="1.000000" />
<path d="M 352.878906 130.319336 L 352.878906 116.300781 L 353.738281 116.300781 L 353.738281 130.319336 Z " fill="rgb(0, 0, 0)" fill-opacity="1.000000" />
<path d="M 443.878906 130.319336 L 443.878906 116.300781 L 444.738281 116.300781 L 444.738281 130.319336 Z " fill="rgb(0, 0, 0)" fill-opacity="1.000000" />
<path d="M 569.878906 130.319336 L 569.878906 116.300781 L 570.738281 116.300781 L 570.738281 130.319336 Z " fill="rgb(0, 0, 0)" fill-opacity="1.000000" />
<path d="M 611.449219 130.319336 L 611.449219 116.300781 L 613.167969 116.300781 L 613.167969 130.319336 Z " fill="rgb(0, 0, 0)" fill-opacity="1.000000" />
<path d="M 616.032227 127.418945 L 616.032227 120.866211 L 622.590332 120.866211 L 622.590332 127.418945 Z " fill="rgb(0, 0, 0)" fill-opacity="1.000000" />
<path d="M 623.032227 127.418945 L 623.032227 120.866211 L 629.590332 120.866211 L 629.590332 127.418945 Z " fill="rgb(0, 0, 0)" fill-opacity="1.000000" />
<path d="M 630.032227 127.418945 L 630.032227 120.866211 L 636.590332 120.866211 L 636.590332 127.418945 Z " fill="rgb(0, 0, 0)" fill-opacity="1.000000" />
<path d="M 637.032227 127.418945 L 637.032227 120.866211 L 643.590332 120.866211 L 643.590332 127.418945 Z " fill="rgb(0, 0, 0)" fill-opacity="1.000000" />
<path d="M 644.032227 127.418945 L 644.032227 120.866211 L 650.590332 120.866211 L 650.590332 127.418945 Z " fill="rgb(0, 0, 0)" fill-opacity="1.000000" />
<path d="M 651.032227 127.418945 L 651.032227 120.866211 L 657.590332 120.866211 L 657.590332 127.418945 Z " fill="rgb(0, 0, 0)" fill-opacity="1.000000" />
<path d="M 658.032227 127.418945 L 658.032227 120.866211 L 664.590332 120.866211 L 664.590332 127.418945 Z " fill="rgb(0, 0, 0)" fill-opacity="1.000000" />
<path d="M 665.032227 127.418945 L 665.032227 120.866211 L 671.590332 120.866211 L 671.590332 127.418945 Z " fill="rgb(0, 0, 0)" fill-opacity="1.000000" />
<path d="M 674.449219 130.319336 L 674.449219 116.300781 L 676.167969 116.300781 L 676.167969 130.319336 Z " fill="rgb(0, 0, 0)" fill-opacity="1.000000" />
<path d="M 98.032227 114.418945 L 98.032227 107.866211 L 104.590332 111.142578 Z " fill="rgb(0, 0, 0)" fill-opacity="1.000000" />
<path d="M 107.878906 117.319336 L 107.878906 103.300781 L 108.738281 103.300781 L 108.738281 117.319336 Z " fill="rgb(0, 0, 0)" fill-opacity="1.000000" />
<path d="M 120.058105 105.980957 L 124.816895 105.980957 L 124.816895 106.894043 L 121.143066 106.894043 L 121.143066 109.053223 L 124.655762 109.053223 L 124.655762 109.966309 L 121.143066 109.966309 L 121.143066 113.086914 L 124.918945 113.086914 L 124.918945 114.000000 L 120.058105 114.000000 Z " fill="rgb(0, 0, 0)" fill-opacity="1.000000" />
<path d="M 131.645020 110.272461 L 131.645020 114.000000 L 130.651367 114.000000 L 130.651367 110.272461 Q 130.651367 109.461426 130.366699 109.080078 Q 130.082031 108.698730 129.475098 108.698730 Q 128.782227 108.698730 128.408936 109.190186 Q 128.035645 109.681641 128.035645 110.600098 L 128.035645 114.000000 L 127.047363 114.000000 L 127.047363 107.984375 L 128.035645 107.984375 L 128.035645 108.886719 Q 128.298828 108.371094 128.750000 108.105225 Q 129.201172 107.839355 129.818848 107.839355 Q 130.737305 107.839355 131.191162 108.443604 Q 131.645020 109.047852 131.645020 110.272461 Z " fill="rgb(0, 0, 0)" fill-opacity="1.000000" />
<path d="M 138.698730 113.693848 Q 138.301270 113.924805 137.879639 114.040283 Q 137.458008 114.155762 137.017578 114.155762 Q 135.621094 114.155762 134.834229 113.317871 Q 134.047363 112.479980 134.047363 110.997559 Q 134.047363 109.515137 134.834229 108.677246 Q 135.621094 107.839355 137.017578 107.839355 Q 137.452637 107.839355 137.866211 107.952148 Q 138.279785 108.064941 138.698730 108.301270 L 138.698730 109.337891 Q 138.306641 108.988770 137.911865 108.833008 Q 137.517090 108.677246 137.017578 108.677246 Q 136.088379 108.677246 135.588867 109.278809 Q 135.089355 109.880371 135.089355 110.997559 Q 135.089355 112.109375 135.591553 112.713623 Q 136.093750 113.317871 137.017578 113.317871 Q 137.533203 113.317871 137.941406 113.159424 Q 138.349609 113.000977 138.698730 112.667969 Z " fill="rgb(0, 0, 0)" fill-opacity="1.000000" />
<path d="M 143.308594 108.677246 Q 142.556641 108.677246 142.169922 109.262695 Q 141.783203 109.848145 141.783203 110.997559 Q 141.783203 112.141602 142.169922 112.729736 Q 142.556641 113.317871 143.308594 113.317871 Q 144.065918 113.317871 144.452637 112.729736 Q 144.839355 112.141602 144.839355 110.997559 Q 144.839355 109.848145 144.452637 109.262695 Q 144.065918 108.677246 143.308594 108.677246 Z M 143.308594 107.839355 Q 144.560059 107.839355 145.223389 108.650391 Q 145.886719 109.461426 145.886719 110.997559 Q 145.886719 112.539062 145.226074 113.347412 Q 144.565430 114.155762 143.308594 114.155762 Q 142.057129 114.155762 141.396484 113.347412 Q 140.735840 112.539062 140.735840 110.997559 Q 140.735840 109.461426 141.396484 108.650391 Q 142.057129 107.839355 143.308594 107.839355 Z " fill="rgb(0, 0, 0)" fill-opacity="1.000000" />
<path d="M 151.608398 108.752441 L 151.608398 105.642578 L 152.596680 105.642578 L 152.596680 114.000000 L 151.608398 114.000000 L 151.608398 113.242676 Q 151.361328 113.688477 150.950439 113.922119 Q 150.539551 114.155762 150.002441 114.155762 Q 148.912109 114.155762 148.286377 113.309814 Q 147.660645 112.463867 147.660645 110.976074 Q 147.660645 109.509766 148.289062 108.674561 Q 148.917480 107.839355 150.002441 107.839355 Q 150.544922 107.839355 150.958496 108.072998 Q 151.372070 108.306641 151.608398 108.752441 Z M 148.702637 110.997559 Q 148.702637 112.146973 149.067871 112.732422 Q 149.433105 113.317871 150.147461 113.317871 Q 150.861816 113.317871 151.235107 112.727051 Q 151.608398 112.136230 151.608398 110.997559 Q 151.608398 109.853516 151.235107 109.265381 Q 150.861816 108.677246 150.147461 108.677246 Q 149.433105 108.677246 149.067871 109.262695 Q 148.702637 109.848145 148.702637 110.997559 Z " fill="rgb(0, 0, 0)" fill-opacity="1.000000" />
<path d="M 160.015625 110.498047 L 160.015625 110.981445 L 155.734863 110.981445 L 155.734863 111.013672 Q 155.691895 112.243652 156.204834 112.780762 Q 156.717773 113.317871 157.652344 113.317871 Q 158.125000 113.317871 158.640625 113.167480 Q 159.156250 113.017090 159.741699 112.710938 L 159.741699 113.693848 Q 159.177734 113.924805 158.654053 114.040283 Q 158.130371 114.155762 157.641602 114.155762 Q 156.239746 114.155762 155.450195 113.315186 Q 154.660645 112.474609 154.660645 110.997559 Q 154.660645 109.558105 155.434082 108.698730 Q 156.207520 107.839355 157.496582 107.839355 Q 158.645996 107.839355 159.309326 108.618164 Q 159.972656 109.396973 160.015625 110.498047 Z M 159.027344 110.208008 Q 158.962891 109.584961 158.573486 109.131104 Q 158.184082 108.677246 157.453613 108.677246 Q 156.739258 108.677246 156.277344 109.149902 Q 155.815430 109.622559 155.772461 110.213379 Z " fill="rgb(0, 0, 0)" fill-opacity="1.000000" />
<path d="M 167.203613 109.225098 Q 166.886719 108.978027 166.559082 108.865234 Q 166.231445 108.752441 165.839355 108.752441 Q 164.915527 108.752441 164.426758 109.332520 Q 163.937988 109.912598 163.937988 111.008301 L 163.937988 114.000000 L 162.944336 114.000000 L 162.944336 107.984375 L 163.937988 107.984375 L 163.937988 109.160645 Q 164.185059 108.521484 164.697998 108.180420 Q 165.210938 107.839355 165.914551 107.839355 Q 166.279785 107.839355 166.596680 107.930664 Q 166.913574 108.021973 167.203613 108.215332 Z " fill="rgb(0, 0, 0)" fill-opacity="1.000000" />
<path d="M 175.102051 106.007812 L 176.584473 106.007812 L 179.721191 112.587402 L 179.721191 106.007812 L 180.875977 106.007812 L 180.875977 114.000000 L 179.393555 114.000000 L 176.256836 107.420410 L 176.256836 114.000000 L 175.102051 114.000000 Z " fill="rgb(0, 0, 0)" fill-opacity="1.000000" />
<path d="M 188.015625 110.498047 L 188.015625 110.981445 L 183.734863 110.981445 L 183.734863 111.013672 Q 183.691895 112.243652 184.204834 112.780762 Q 184.717773 113.317871 185.652344 113.317871 Q 186.125000 113.317871 186.640625 113.167480 Q 187.156250 113.017090 187.741699 112.710938 L 187.741699 113.693848 Q 187.177734 113.924805 186.654053 114.040283 Q 186.130371 114.155762 185.641602 114.155762 Q 184.239746 114.155762 183.450195 113.315186 Q 182.660645 112.474609 182.660645 110.997559 Q 182.660645 109.558105 183.434082 108.698730 Q 184.207520 107.839355 185.496582 107.839355 Q 186.645996 107.839355 187.309326 108.618164 Q 187.972656 109.396973 188.015625 110.498047 Z M 187.027344 110.208008 Q 186.962891 109.584961 186.573486 109.131104 Q 186.184082 108.677246 185.453613 108.677246 Q 184.739258 108.677246 184.277344 109.149902 Q 183.815430 109.622559 183.772461 110.213379 Z " fill="rgb(0, 0, 0)" fill-opacity="1.000000" />
<path d="M 192.297852 106.276367 L 192.297852 107.984375 L 194.542969 107.984375 L 194.542969 108.752441 L 192.297852 108.752441 L 192.297852 112.018066 Q 192.297852 112.684082 192.550293 112.947266 Q 192.802734 113.210449 193.431152 113.210449 L 194.542969 113.210449 L 194.542969 114.000000 L 193.334473 114.000000 Q 192.222656 114.000000 191.766113 113.554199 Q 191.309570 113.108398 191.309570 112.018066 L 191.309570 108.752441 L 189.703613 108.752441 L 189.703613 107.984375 L 191.309570 107.984375 L 191.309570 106.276367 Z " fill="rgb(0, 0, 0)" fill-opacity="1.000000" />
<path d="M 196.000000 107.984375 L 196.977539 107.984375 L 198.024902 112.845215 L 198.884277 109.740723 L 199.727539 109.740723 L 200.597656 112.845215 L 201.645020 107.984375 L 202.622559 107.984375 L 201.215332 114.000000 L 200.270020 114.000000 L 199.308594 110.702148 L 198.352539 114.000000 L 197.407227 114.000000 Z " fill="rgb(0, 0, 0)" fill-opacity="1.000000" />
<path d="M 206.308594 108.677246 Q 205.556641 108.677246 205.169922 109.262695 Q 204.783203 109.848145 204.783203 110.997559 Q 204.783203 112.141602 205.169922 112.729736 Q 205.556641 113.317871 206.308594 113.317871 Q 207.065918 113.317871 207.452637 112.729736 Q 207.839355 112.141602 207.839355 110.997559 Q 207.839355 109.848145 207.452637 109.262695 Q 207.065918 108.677246 206.308594 108.677246 Z M 206.308594 107.839355 Q 207.560059 107.839355 208.223389 108.650391 Q 208.886719 109.461426 208.886719 110.997559 Q 208.886719 112.539062 208.226074 113.347412 Q 207.565430 114.155762 206.308594 114.155762 Q 205.057129 114.155762 204.396484 113.347412 Q 203.735840 112.539062 203.735840 110.997559 Q 203.735840 109.461426 204.396484 108.650391 Q 205.057129 107.839355 206.308594 107.839355 Z " fill="rgb(0, 0, 0)" fill-opacity="1.000000" />
<path d="M 216.203613 109.225098 Q 215.886719 108.978027 215.559082 108.865234 Q 215.231445 108.752441 214.839355 108.752441 Q 213.915527 108.752441 213.426758 109.332520 Q 212.937988 109.912598 212.937988 111.008301 L 212.937988 114.000000 L 211.944336 114.000000 L 211.944336 107.984375 L 212.937988 107.984375 L 212.937988 109.160645 Q 213.185059 108.521484 213.697998 108.180420 Q 214.210938 107.839355 214.914551 107.839355 Q 215.279785 107.839355 215.596680 107.930664 Q 215.913574 108.021973 216.203613 108.215332 Z " fill="rgb(0, 0, 0)" fill-opacity="1.000000" />
<path d="M 218.267578 105.642578 L 219.288086 105.642578 L 219.288086 110.481934 L 221.882324 107.984375 L 223.085449 107.984375 L 220.716797 110.250977 L 223.456055 114.000000 L 222.247559 114.000000 L 220.023926 110.895508 L 219.288086 111.588379 L 219.288086 114.000000 L 218.267578 114.000000 Z " fill="rgb(0, 0, 0)" fill-opacity="1.000000" />
<path d="M 233.878906 117.319336 L 233.878906 103.300781 L 234.738281 103.300781 L 234.738281 117.319336 Z " fill="rgb(0, 0, 0)" fill-opacity="1.000000" />
<path d="M 237.892578 111.335938 L 237.892578 110.412109 L 244.729980 110.412109 L 244.729980 111.335938 Z " fill="rgb(0, 0, 0)" fill-opacity="1.000000" />
<path d="M 244.892578 111.335938 L 244.892578 110.412109 L 251.729980 110.412109 L 251.729980 111.335938 Z " fill="rgb(0, 0, 0)" fill-opacity="1.000000" />
<path d="M 251.892578 111.335938 L 251.892578 110.412109 L 258.729980 110.412109 L 258.729980 111.335938 Z " fill="rgb(0, 0, 0)" fill-opacity="1.000000" />
<path d="M 258.892578 111.335938 L 258.892578 110.412109 L 265.729980 110.412109 L 265.729980 111.335938 Z " fill="rgb(0, 0, 0)" fill-opacity="1.000000" />
<path d="M 265.892578 111.335938 L 265.892578 110.412109 L 272.729980 110.412109 L 272.729980 111.335938 Z " fill="rgb(0, 0, 0)" fill-opacity="1.000000" />
<path d="M 272.892578 111.335938 L 272.892578 110.412109 L 279.729980 110.412109 L 279.729980 111.335938 Z " fill="rgb(0, 0, 0)" fill-opacity="1.000000" />
<path d="M 279.892578 111.335938 L 279.892578 110.412109 L 286.729980 110.412109 L 286.729980 111.335938 Z " fill="rgb(0, 0, 0)" fill-opacity="1.000000" />
<path d="M 286.892578 111.335938 L 286.892578 110.412109 L 293.729980 110.412109 L 293.729980 111.335938 Z " fill="rgb(0, 0, 0)" fill-opacity="1.000000" />
<path d="M 293.892578 111.335938 L 293.892578 110.412109 L 300.729980 110.412109 L 300.729980 111.335938 Z " fill="rgb(0, 0, 0)" fill-opacity="1.000000" />
<path d="M 300.892578 111.335938 L 300.892578 110.412109 L 307.729980 110.412109 L 307.729980 111.335938 Z " fill="rgb(0, 0, 0)" fill-opacity="1.000000" />
<path d="M 307.892578 111.335938 L 307.892578 110.412109 L 314.729980 110.412109 L 314.729980 111.335938 Z " fill="rgb(0, 0, 0)" fill-opacity="1.000000" />
<path d="M 315.032227 114.418945 L 315.032227 107.866211 L 321.590332 111.142578 Z " fill="rgb(0, 0, 0)" fill-opacity="1.000000" />
<path d="M 324.878906 117.319336 L 324.878906 103.300781 L 325.738281 103.300781 L 325.738281 117.319336 Z " fill="rgb(0, 0, 0)" fill-opacity="1.000000" />
<path d="M 338.089355 111.830078 L 339.979980 111.830078 L 339.979980 114.000000 L 338.089355 114.000000 Z " fill="rgb(0, 0, 0)" fill-opacity="1.000000" />
<path d="M 352.878906 117.319336 L 352.878906 103.300781 L 353.738281 103.300781 L 353.738281 117.319336 Z " fill="rgb(0, 0, 0)" fill-opacity="1.000000" />
<path d="M 356.892578 111.335938 L 356.892578 110.412109 L 363.729980 110.412109 L 363.729980 111.335938 Z " fill="rgb(0, 0, 0)" fill-opacity="1.000000" />
<path d="M 363.892578 111.335938 L 363.892578 110.412109 L 370.729980 110.412109 L 370.729980 111.335938 Z " fill="rgb(0, 0, 0)" fill-opacity="1.000000" />
<path d="M 370.892578 111.335938 L 370.892578 110.412109 L 377.729980 110.412109 L 377.729980 111.335938 Z " fill="rgb(0, 0, 0)" fill-opacity="1.000000" />
<path d="M 377.892578 111.335938 L 377.892578 110.412109 L 384.729980 110.412109 L 384.729980 111.335938 Z " fill="rgb(0, 0, 0)" fill-opacity="1.000000" />
<path d="M 384.892578 111.335938 L 384.892578 110.412109 L 391.729980 110.412109 L 391.729980 111.335938 Z " fill="rgb(0, 0, 0)" fill-opacity="1.000000" />
<path d="M 391.892578 111.335938 L 391.892578 110.412109 L 398.729980 110.412109 L 398.729980 111.335938 Z " fill="rgb(0, 0, 0)" fill-opacity="1.000000" />
<path d="M 398.892578 111.335938 L 398.892578 110.412109 L 405.729980 110.412109 L 405.729980 111.335938 Z " fill="rgb(0, 0, 0)" fill-opacity="1.000000" />
<path d="M 405.892578 111.335938 L 405.892578 110.412109 L 412.729980 110.412109 L 412.729980 111.335938 Z " fill="rgb(0, 0, 0)" fill-opacity="1.000000" />
<path d="M 412.892578 111.335938 L 412.892578 110.412109 L 419.729980 110.412109 L 419.729980 111.335938 Z " fill="rgb(0, 0, 0)" fill-opacity="1.000000" />
<path d="M 419.892578 111.335938 L 419.892578 110.412109 L 426.729980 110.412109 L 426.729980 111.335938 Z " fill="rgb(0, 0, 0)" fill-opacity="1.000000" />
<path d="M 426.892578 111.335938 L 426.892578 110.412109 L 433.729980 110.412109 L 433.729980 111.335938 Z " fill="rgb(0, 0, 0)" fill-opacity="1.000000" />
<path d="M 434.032227 114.418945 L 434.032227 107.866211 L 440.590332 111.142578 Z " fill="rgb(0, 0, 0)" fill-opacity="1.000000" />
<path d="M 443.878906 117.319336 L 443.878906 103.300781 L 444.738281 103.300781 L 444.738281 117.319336 Z " fill="rgb(0, 0, 0)" fill-opacity="1.000000" />
<path d="M 457.341797 113.108398 Q 458.711426 113.108398 459.253906 112.434326 Q 459.796387 111.760254 459.796387 109.998535 Q 459.796387 108.220703 459.256592 107.546631 Q 458.716797 106.872559 457.341797 106.872559 L 456.826172 106.872559 L 456.826172 113.108398 Z M 457.363281 105.980957 Q 459.200195 105.980957 460.070312 106.958496 Q 460.940430 107.936035 460.940430 109.998535 Q 460.940430 112.050293 460.070312 113.025146 Q 459.200195 114.000000 457.363281 114.000000 L 455.735840 114.000000 L 455.735840 105.980957 Z " fill="rgb(0, 0, 0)" fill-opacity="1.000000" />
<path d="M 468.015625 110.498047 L 468.015625 110.981445 L 463.734863 110.981445 L 463.734863 111.013672 Q 463.691895 112.243652 464.204834 112.780762 Q 464.717773 113.317871 465.652344 113.317871 Q 466.125000 113.317871 466.640625 113.167480 Q 467.156250 113.017090 467.741699 112.710938 L 467.741699 113.693848 Q 467.177734 113.924805 466.654053 114.040283 Q 466.130371 114.155762 465.641602 114.155762 Q 464.239746 114.155762 463.450195 113.315186 Q 462.660645 112.474609 462.660645 110.997559 Q 462.660645 109.558105 463.434082 108.698730 Q 464.207520 107.839355 465.496582 107.839355 Q 466.645996 107.839355 467.309326 108.618164 Q 467.972656 109.396973 468.015625 110.498047 Z M 467.027344 110.208008 Q 466.962891 109.584961 466.573486 109.131104 Q 466.184082 108.677246 465.453613 108.677246 Q 464.739258 108.677246 464.277344 109.149902 Q 463.815430 109.622559 463.772461 110.213379 Z " fill="rgb(0, 0, 0)" fill-opacity="1.000000" />
<path d="M 474.698730 113.693848 Q 474.301270 113.924805 473.879639 114.040283 Q 473.458008 114.155762 473.017578 114.155762 Q 471.621094 114.155762 470.834229 113.317871 Q 470.047363 112.479980 470.047363 110.997559 Q 470.047363 109.515137 470.834229 108.677246 Q 471.621094 107.839355 473.017578 107.839355 Q 473.452637 107.839355 473.866211 107.952148 Q 474.279785 108.064941 474.698730 108.301270 L 474.698730 109.337891 Q 474.306641 108.988770 473.911865 108.833008 Q 473.517090 108.677246 473.017578 108.677246 Q 472.088379 108.677246 471.588867 109.278809 Q 471.089355 109.880371 471.089355 110.997559 Q 471.089355 112.109375 471.591553 112.713623 Q 472.093750 113.317871 473.017578 113.317871 Q 473.533203 113.317871 473.941406 113.159424 Q 474.349609 113.000977 474.698730 112.667969 Z " fill="rgb(0, 0, 0)" fill-opacity="1.000000" />
<path d="M 479.308594 108.677246 Q 478.556641 108.677246 478.169922 109.262695 Q 477.783203 109.848145 477.783203 110.997559 Q 477.783203 112.141602 478.169922 112.729736 Q 478.556641 113.317871 479.308594 113.317871 Q 480.065918 113.317871 480.452637 112.729736 Q 480.839355 112.141602 480.839355 110.997559 Q 480.839355 109.848145 480.452637 109.262695 Q 480.065918 108.677246 479.308594 108.677246 Z M 479.308594 107.839355 Q 480.560059 107.839355 481.223389 108.650391 Q 481.886719 109.461426 481.886719 110.997559 Q 481.886719 112.539062 481.226074 113.347412 Q 480.565430 114.155762 479.308594 114.155762 Q 478.057129 114.155762 477.396484 113.347412 Q 476.735840 112.539062 476.735840 110.997559 Q 476.735840 109.461426 477.396484 108.650391 Q 478.057129 107.839355 479.308594 107.839355 Z " fill="rgb(0, 0, 0)" fill-opacity="1.000000" />
<path d="M 487.608398 108.752441 L 487.608398 105.642578 L 488.596680 105.642578 L 488.596680 114.000000 L 487.608398 114.000000 L 487.608398 113.242676 Q 487.361328 113.688477 486.950439 113.922119 Q 486.539551 114.155762 486.002441 114.155762 Q 484.912109 114.155762 484.286377 113.309814 Q 483.660645 112.463867 483.660645 110.976074 Q 483.660645 109.509766 484.289062 108.674561 Q 484.917480 107.839355 486.002441 107.839355 Q 486.544922 107.839355 486.958496 108.072998 Q 487.372070 108.306641 487.608398 108.752441 Z M 484.702637 110.997559 Q 484.702637 112.146973 485.067871 112.732422 Q 485.433105 113.317871 486.147461 113.317871 Q 486.861816 113.317871 487.235107 112.727051 Q 487.608398 112.136230 487.608398 110.997559 Q 487.608398 109.853516 487.235107 109.265381 Q 486.861816 108.677246 486.147461 108.677246 Q 485.433105 108.677246 485.067871 109.262695 Q 484.702637 109.848145 484.702637 110.997559 Z " fill="rgb(0, 0, 0)" fill-opacity="1.000000" />
<path d="M 496.015625 110.498047 L 496.015625 110.981445 L 491.734863 110.981445 L 491.734863 111.013672 Q 491.691895 112.243652 492.204834 112.780762 Q 492.717773 113.317871 493.652344 113.317871 Q 494.125000 113.317871 494.640625 113.167480 Q 495.156250 113.017090 495.741699 112.710938 L 495.741699 113.693848 Q 495.177734 113.924805 494.654053 114.040283 Q 494.130371 114.155762 493.641602 114.155762 Q 492.239746 114.155762 491.450195 113.315186 Q 490.660645 112.474609 490.660645 110.997559 Q 490.660645 109.558105 491.434082 108.698730 Q 492.207520 107.839355 493.496582 107.839355 Q 494.645996 107.839355 495.309326 108.618164 Q 495.972656 109.396973 496.015625 110.498047 Z M 495.027344 110.208008 Q 494.962891 109.584961 494.573486 109.131104 Q 494.184082 108.677246 493.453613 108.677246 Q 492.739258 108.677246 492.277344 109.149902 Q 491.815430 109.622559 491.772461 110.213379 Z " fill="rgb(0, 0, 0)" fill-opacity="1.000000" />
<path d="M 503.203613 109.225098 Q 502.886719 108.978027 502.559082 108.865234 Q 502.231445 108.752441 501.839355 108.752441 Q 500.915527 108.752441 500.426758 109.332520 Q 499.937988 109.912598 499.937988 111.008301 L 499.937988 114.000000 L 498.944336 114.000000 L 498.944336 107.984375 L 499.937988 107.984375 L 499.937988 109.160645 Q 500.185059 108.521484 500.697998 108.180420 Q 501.210938 107.839355 501.914551 107.839355 Q 502.279785 107.839355 502.596680 107.930664 Q 502.913574 108.021973 503.203613 108.215332 Z " fill="rgb(0, 0, 0)" fill-opacity="1.000000" />
<path d="M 511.102051 106.007812 L 512.584473 106.007812 L 515.721191 112.587402 L 515.721191 106.007812 L 516.875977 106.007812 L 516.875977 114.000000 L 515.393555 114.000000 L 512.256836 107.420410 L 512.256836 114.000000 L 511.102051 114.000000 Z " fill="rgb(0, 0, 0)" fill-opacity="1.000000" />
<path d="M 524.015625 110.498047 L 524.015625 110.981445 L 519.734863 110.981445 L 519.734863 111.013672 Q 519.691895 112.243652 520.204834 112.780762 Q 520.717773 113.317871 521.652344 113.317871 Q 522.125000 113.317871 522.640625 113.167480 Q 523.156250 113.017090 523.741699 112.710938 L 523.741699 113.693848 Q 523.177734 113.924805 522.654053 114.040283 Q 522.130371 114.155762 521.641602 114.155762 Q 520.239746 114.155762 519.450195 113.315186 Q 518.660645 112.474609 518.660645 110.997559 Q 518.660645 109.558105 519.434082 108.698730 Q 520.207520 107.839355 521.496582 107.839355 Q 522.645996 107.839355 523.309326 108.618164 Q 523.972656 109.396973 524.015625 110.498047 Z M 523.027344 110.208008 Q 522.962891 109.584961 522.573486 109.131104 Q 522.184082 108.677246 521.453613 108.677246 Q 520.739258 108.677246 520.277344 109.149902 Q 519.815430 109.622559 519.772461 110.213379 Z " fill="rgb(0, 0, 0)" fill-opacity="1.000000" />
<path d="M 528.297852 106.276367 L 528.297852 107.984375 L 530.542969 107.984375 L 530.542969 108.752441 L 528.297852 108.752441 L 528.297852 112.018066 Q 528.297852 112.684082 528.550293 112.947266 Q 528.802734 113.210449 529.431152 113.210449 L 530.542969 113.210449 L 530.542969 114.000000 L 529.334473 114.000000 Q 528.222656 114.000000 527.766113 113.554199 Q 527.309570 113.108398 527.309570 112.018066 L 527.309570 108.752441 L 525.703613 108.752441 L 525.703613 107.984375 L 527.309570 107.984375 L 527.309570 106.276367 Z " fill="rgb(0, 0, 0)" fill-opacity="1.000000" />
<path d="M 532.000000 107.984375 L 532.977539 107.984375 L 534.024902 112.845215 L 534.884277 109.740723 L 535.727539 109.740723 L 536.597656 112.845215 L 537.645020 107.984375 L 538.622559 107.984375 L 537.215332 114.000000 L 536.270020 114.000000 L 535.308594 110.702148 L 534.352539 114.000000 L 533.407227 114.000000 Z " fill="rgb(0, 0, 0)" fill-opacity="1.000000" />
<path d="M 542.308594 108.677246 Q 541.556641 108.677246 541.169922 109.262695 Q 540.783203 109.848145 540.783203 110.997559 Q 540.783203 112.141602 541.169922 112.729736 Q 541.556641 113.317871 542.308594 113.317871 Q 543.065918 113.317871 543.452637 112.729736 Q 543.839355 112.141602 543.839355 110.997559 Q 543.839355 109.848145 543.452637 109.262695 Q 543.065918 108.677246 542.308594 108.677246 Z M 542.308594 107.839355 Q 543.560059 107.839355 544.223389 108.650391 Q 544.886719 109.461426 544.886719 110.997559 Q 544.886719 112.539062 544.226074 113.347412 Q 543.565430 114.155762 542.308594 114.155762 Q 541.057129 114.155762 540.396484 113.347412 Q 539.735840 112.539062 539.735840 110.997559 Q 539.735840 109.461426 540.396484 108.650391 Q 541.057129 107.839355 542.308594 107.839355 Z " fill="rgb(0, 0, 0)" fill-opacity="1.000000" />
<path d="M 552.203613 109.225098 Q 551.886719 108.978027 551.559082 108.865234 Q 551.231445 108.752441 550.839355 108.752441 Q 549.915527 108.752441 549.426758 109.332520 Q 548.937988 109.912598 548.937988 111.008301 L 548.937988 114.000000 L 547.944336 114.000000 L 547.944336 107.984375 L 548.937988 107.984375 L 548.937988 109.160645 Q 549.185059 108.521484 549.697998 108.180420 Q 550.210938 107.839355 550.914551 107.839355 Q 551.279785 107.839355 551.596680 107.930664 Q 551.913574 108.021973 552.203613 108.215332 Z " fill="rgb(0, 0, 0)" fill-opacity="1.000000" />
<path d="M 554.267578 105.642578 L 555.288086 105.642578 L 555.288086 110.481934 L 557.882324 107.984375 L 559.085449 107.984375 L 556.716797 110.250977 L 559.456055 114.000000 L 558.247559 114.000000 L 556.023926 110.895508 L 555.288086 111.588379 L 555.288086 114.000000 L 554.267578 114.000000 Z " fill="rgb(0, 0, 0)" fill-opacity="1.000000" />
<path d="M 569.878906 117.319336 L 569.878906 103.300781 L 570.738281 103.300781 L 570.738281 117.319336 Z " fill="rgb(0, 0, 0)" fill-opacity="1.000000" />
<path d="M 573.892578 111.335938 L 573.892578 110.412109 L 580.729980 110.412109 L 580.729980 111.335938 Z " fill="rgb(0, 0, 0)" fill-opacity="1.000000" />
<path d="M 580.892578 111.335938 L 580.892578 110.412109 L 587.729980 110.412109 L 587.729980 111.335938 Z " fill="rgb(0, 0, 0)" fill-opacity="1.000000" />
<path d="M 587.892578 111.335938 L 587.892578 110.412109 L 594.729980 110.412109 L 594.729980 111.335938 Z " fill="rgb(0, 0, 0)" fill-opacity="1.000000" />
<path d="M 594.892578 111.335938 L 594.892578 110.412109 L 601.729980 110.412109 L 601.729980 111.335938 Z " fill="rgb(0, 0, 0)" fill-opacity="1.000000" />
<path d="M 602.032227 114.418945 L 602.032227 107.866211 L 608.590332 111.142578 Z " fill="rgb(0, 0, 0)" fill-opacity="1.000000" />
<path d="M 611.449219 117.319336 L 611.449219 103.300781 L 613.167969 103.300781 L 613.167969 117.319336 Z " fill="rgb(0, 0, 0)" fill-opacity="1.000000" />
<path d="M 616.032227 114.418945 L 616.032227 107.866211 L 622.590332 107.866211 L 622.590332 114.418945 Z " fill="rgb(0, 0, 0)" fill-opacity="1.000000" />
<path d="M 623.032227 114.418945 L 623.032227 107.866211 L 629.590332 107.866211 L 629.590332 114.418945 Z " fill="rgb(0, 0, 0)" fill-opacity="1.000000" />
<path d="M 630.032227 114.418945 L 630.032227 107.866211 L 636.590332 107.866211 L 636.590332 114.418945 Z " fill="rgb(0, 0, 0)" fill-opacity="1.000000" />
<path d="M 637.032227 114.418945 L 637.032227 107.866211 L 643.590332 107.866211 L 643.590332 114.418945 Z " fill="rgb(0, 0, 0)" fill-opacity="1.000000" />
<path d="M 644.032227 114.418945 L 644.032227 107.866211 L 650.590332 107.866211 L 650.590332 114.418945 Z " fill="rgb(0, 0, 0)" fill-opacity="1.000000" />
<path d="M 651.032227 114.418945 L 651.032227 107.866211 L 657.590332 107.866211 L 657.590332 114.418945 Z " fill="rgb(0, 0, 0)" fill-opacity="1.000000" />
<path d="M 658.032227 114.418945 L 658.032227 107.866211 L 664.590332 107.866211 L 664.590332 114.418945 Z " fill="rgb(0, 0, 0)" fill-opacity="1.000000" />
<path d="M 665.032227 114.418945 L 665.032227 107.866211 L 671.590332 107.866211 L 671.590332 114.418945 Z " fill="rgb(0, 0, 0)" fill-opacity="1.000000" />
<path d="M 674.449219 117.319336 L 674.449219 103.300781 L 676.167969 103.300781 L 676.167969 117.319336 Z " fill="rgb(0, 0, 0)" fill-opacity="1.000000" />
<path d="M 107.878906 104.319336 L 107.878906 90.300781 L 108.738281 90.300781 L 108.738281 104.319336 Z " fill="rgb(0, 0, 0)" fill-opacity="1.000000" />
<path d="M 233.878906 104.319336 L 233.878906 90.300781 L 234.738281 90.300781 L 234.738281 104.319336 Z " fill="rgb(0, 0, 0)" fill-opacity="1.000000" />
<path d="M 324.878906 104.319336 L 324.878906 90.300781 L 325.738281 90.300781 L 325.738281 104.319336 Z " fill="rgb(0, 0, 0)" fill-opacity="1.000000" />
<path d="M 338.089355 98.830078 L 339.979980 98.830078 L 339.979980 101.000000 L 338.089355 101.000000 Z " fill="rgb(0, 0, 0)" fill-opacity="1.000000" />
<path d="M 352.878906 104.319336 L 352.878906 90.300781 L 353.738281 90.300781 L 353.738281 104.319336 Z " fill="rgb(0, 0, 0)" fill-opacity="1.000000" />
<path d="M 443.878906 104.319336 L 443.878906 90.300781 L 444.738281 90.300781 L 444.738281 104.319336 Z " fill="rgb(0, 0, 0)" fill-opacity="1.000000" />
<path d="M 569.878906 104.319336 L 569.878906 90.300781 L 570.738281 90.300781 L 570.738281 104.319336 Z " fill="rgb(0, 0, 0)" fill-opacity="1.000000" />
<path d="M 611.449219 104.319336 L 611.449219 90.300781 L 613.167969 90.300781 L 613.167969 104.319336 Z " fill="rgb(0, 0, 0)" fill-opacity="1.000000" />
<path d="M 616.032227 101.418945 L 616.032227 94.866211 L 622.590332 94.866211 L 622.590332 101.418945 Z " fill="rgb(0, 0, 0)" fill-opacity="1.000000" />
<path d="M 623.032227 101.418945 L 623.032227 94.866211 L 629.590332 94.866211 L 629.590332 101.418945 Z " fill="rgb(0, 0, 0)" fill-opacity="1.000000" />
<path d="M 630.032227 101.418945 L 630.032227 94.866211 L 636.590332 94.866211 L 636.590332 101.418945 Z " fill="rgb(0, 0, 0)" fill-opacity="1.000000" />
<path d="M 637.032227 101.418945 L 637.032227 94.866211 L 643.590332 94.866211 L 643.590332 101.418945 Z " fill="rgb(0, 0, 0)" fill-opacity="1.000000" />
<path d="M 644.032227 101.418945 L 644.032227 94.866211 L 650.590332 94.866211 L 650.590332 101.418945 Z " fill="rgb(0, 0, 0)" fill-opacity="1.000000" />
<path d="M 651.032227 101.418945 L 651.032227 94.866211 L 657.590332 94.866211 L 657.590332 101.418945 Z " fill="rgb(0, 0, 0)" fill-opacity="1.000000" />
<path d="M 658.032227 101.418945 L 658.032227 94.866211 L 664.590332 94.866211 L 664.590332 101.418945 Z " fill="rgb(0, 0, 0)" fill-opacity="1.000000" />
<path d="M 665.032227 101.418945 L 665.032227 94.866211 L 671.590332 94.866211 L 671.590332 101.418945 Z " fill="rgb(0, 0, 0)" fill-opacity="1.000000" />
<path d="M 674.449219 104.319336 L 674.449219 90.300781 L 676.167969 90.300781 L 676.167969 104.319336 Z " fill="rgb(0, 0, 0)" fill-opacity="1.000000" />
<path d="M 6.892578 85.797852 L 6.892578 83.950195 L 13.729980 83.950195 L 13.729980 85.797852 Z " fill="rgb(0, 0, 0)" fill-opacity="1.000000" />
<path d="M 13.892578 85.797852 L 13.892578 83.950195 L 20.729980 83.950195 L 20.729980 85.797852 Z " fill="rgb(0, 0, 0)" fill-opacity="1.000000" />
<path d="M 20.892578 85.797852 L 20.892578 83.950195 L 27.729980 83.950195 L 27.729980 85.797852 Z " fill="rgb(0, 0, 0)" fill-opacity="1.000000" />
<path d="M 27.892578 85.797852 L 27.892578 83.950195 L 34.729980 83.950195 L 34.729980 85.797852 Z " fill="rgb(0, 0, 0)" fill-opacity="1.000000" />
<path d="M 34.892578 85.797852 L 34.892578 83.950195 L 41.729980 83.950195 L 41.729980 85.797852 Z " fill="rgb(0, 0, 0)" fill-opacity="1.000000" />
<path d="M 41.892578 85.797852 L 41.892578 83.950195 L 48.729980 83.950195 L 48.729980 85.797852 Z " fill="rgb(0, 0, 0)" fill-opacity="1.000000" />
<path d="M 48.892578 85.797852 L 48.892578 83.950195 L 55.729980 83.950195 L 55.729980 85.797852 Z " fill="rgb(0, 0, 0)" fill-opacity="1.000000" />
<path d="M 55.892578 85.797852 L 55.892578 83.950195 L 62.729980 83.950195 L 62.729980 85.797852 Z " fill="rgb(0, 0, 0)" fill-opacity="1.000000" />
<path d="M 65.449219 91.319336 L 65.449219 85.797852 L 62.892578 85.797852 L 62.892578 83.950195 L 67.167969 83.950195 L 67.167969 91.319336 Z " fill="rgb(0, 0, 0)" fill-opacity="1.000000" />
<path d="M 107.878906 91.319336 L 107.878906 77.300781 L 108.738281 77.300781 L 108.738281 91.319336 Z " fill="rgb(0, 0, 0)" fill-opacity="1.000000" />
<path d="M 233.878906 91.319336 L 233.878906 77.300781 L 234.738281 77.300781 L 234.738281 91.319336 Z " fill="rgb(0, 0, 0)" fill-opacity="1.000000" />
<path d="M 324.878906 91.319336 L 324.878906 77.300781 L 325.738281 77.300781 L 325.738281 91.319336 Z " fill="rgb(0, 0, 0)" fill-opacity="1.000000" />
<path d="M 338.089355 85.830078 L 339.979980 85.830078 L 339.979980 88.000000 L 338.089355 88.000000 Z " fill="rgb(0, 0, 0)" fill-opacity="1.000000" />
<path d="M 352.878906 91.319336 L 352.878906 77.300781 L 353.738281 77.300781 L 353.738281 91.319336 Z " fill="rgb(0, 0, 0)" fill-opacity="1.000000" />
<path d="M 443.878906 91.319336 L 443.878906 77.300781 L 444.738281 77.300781 L 444.738281 91.319336 Z " fill="rgb(0, 0, 0)" fill-opacity="1.000000" />
<path d="M 569.878906 91.319336 L 569.878906 77.300781 L 570.738281 77.300781 L 570.738281 91.319336 Z " fill="rgb(0, 0, 0)" fill-opacity="1.000000" />
<path d="M 611.449219 91.319336 L 611.449219 83.950195 L 615.729980 83.950195 L 615.729980 85.797852 L 613.167969 85.797852 L 613.167969 91.319336 Z " fill="rgb(0, 0, 0)" fill-opacity="1.000000" />
<path d="M 615.892578 85.797852 L 615.892578 83.950195 L 622.729980 83.950195 L 622.729980 85.797852 Z " fill="rgb(0, 0, 0)" fill-opacity="1.000000" />
<path d="M 622.892578 85.797852 L 622.892578 83.950195 L 629.729980 83.950195 L 629.729980 85.797852 Z " fill="rgb(0, 0, 0)" fill-opacity="1.000000" />
<path d="M 629.892578 85.797852 L 629.892578 83.950195 L 636.729980 83.950195 L 636.729980 85.797852 Z " fill="rgb(0, 0, 0)" fill-opacity="1.000000" />
<path d="M 636.892578 85.797852 L 636.892578 83.950195 L 643.729980 83.950195 L 643.729980 85.797852 Z " fill="rgb(0, 0, 0)" fill-opacity="1.000000" />
<path d="M 643.892578 85.797852 L 643.892578 83.950195 L 650.729980 83.950195 L 650.729980 85.797852 Z " fill="rgb(0, 0, 0)" fill-opacity="1.000000" />
<path d="M 650.892578 85.797852 L 650.892578 83.950195 L 657.729980 83.950195 L 657.729980 85.797852 Z " fill="rgb(0, 0, 0)" fill-opacity="1.000000" />
<path d="M 657.892578 85.797852 L 657.892578 83.950195 L 664.729980 83.950195 L 664.729980 85.797852 Z " fill="rgb(0, 0, 0)" fill-opacity="1.000000" />
<path d="M 664.892578 85.797852 L 664.892578 83.950195 L 671.729980 83.950195 L 671.729980 85.797852 Z " fill="rgb(0, 0, 0)" fill-opacity="1.000000" />
<path d="M 674.449219 91.319336 L 674.449219 85.797852 L 671.892578 85.797852 L 671.892578 83.950195 L 676.167969 83.950195 L 676.167969 91.319336 Z " fill="rgb(0, 0, 0)" fill-opacity="1.000000" />
<path d="M 107.878906 52.319336 L 107.878906 45.412109 L 111.729980 45.412109 L 111.729980 46.335938 L 108.738281 46.335938 L 108.738281 52.319336 Z " fill="rgb(0, 0, 0)" fill-opacity="1.000000" />
<path d="M 107.878906 65.319336 L 107.878906 51.300781 L 108.738281 51.300781 L 108.738281 65.319336 Z " fill="rgb(0, 0, 0)" fill-opacity="1.000000" />
<path d="M 107.878906 78.319336 L 107.878906 64.300781 L 108.738281 64.300781 L 108.738281 78.319336 Z " fill="rgb(0, 0, 0)" fill-opacity="1.000000" />
<path d="M 233.878906 65.319336 L 233.878906 51.300781 L 234.738281 51.300781 L 234.738281 65.319336 Z " fill="rgb(0, 0, 0)" fill-opacity="1.000000" />
<path d="M 233.878906 78.319336 L 233.878906 64.300781 L 234.738281 64.300781 L 234.738281 78.319336 Z " fill="rgb(0, 0, 0)" fill-opacity="1.000000" />
<path d="M 324.878906 65.319336 L 324.878906 51.300781 L 325.738281 51.300781 L 325.738281 65.319336 Z " fill="rgb(0, 0, 0)" fill-opacity="1.000000" />
<path d="M 324.878906 78.319336 L 324.878906 64.300781 L 325.738281 64.300781 L 325.738281 78.319336 Z " fill="rgb(0, 0, 0)" fill-opacity="1.000000" />
<path d="M 338.089355 59.830078 L 339.979980 59.830078 L 339.979980 62.000000 L 338.089355 62.000000 Z " fill="rgb(0, 0, 0)" fill-opacity="1.000000" />
<path d="M 338.089355 72.830078 L 339.979980 72.830078 L 339.979980 75.000000 L 338.089355 75.000000 Z " fill="rgb(0, 0, 0)" fill-opacity="1.000000" />
<path d="M 352.878906 65.319336 L 352.878906 51.300781 L 353.738281 51.300781 L 353.738281 65.319336 Z " fill="rgb(0, 0, 0)" fill-opacity="1.000000" />
<path d="M 352.878906 78.319336 L 352.878906 64.300781 L 353.738281 64.300781 L 353.738281 78.319336 Z " fill="rgb(0, 0, 0)" fill-opacity="1.000000" />
<path d="M 443.878906 65.319336 L 443.878906 51.300781 L 444.738281 51.300781 L 444.738281 65.319336 Z " fill="rgb(0, 0, 0)" fill-opacity="1.000000" />
<path d="M 443.878906 78.319336 L 443.878906 64.300781 L 444.738281 64.300781 L 444.738281 78.319336 Z " fill="rgb(0, 0, 0)" fill-opacity="1.000000" />
<path d="M 569.878906 65.319336 L 569.878906 51.300781 L 570.738281 51.300781 L 570.738281 65.319336 Z " fill="rgb(0, 0, 0)" fill-opacity="1.000000" />
<path d="M 569.878906 78.319336 L 569.878906 64.300781 L 570.738281 64.300781 L 570.738281 78.319336 Z " fill="rgb(0, 0, 0)" fill-opacity="1.000000" />
<path d="M 111.892578 46.335938 L 111.892578 45.412109 L 118.729980 45.412109 L 118.729980 46.335938 Z " fill="rgb(0, 0, 0)" fill-opacity="1.000000" />
<path d="M 118.892578 46.335938 L 118.892578 45.412109 L 125.729980 45.412109 L 125.729980 46.335938 Z " fill="rgb(0, 0, 0)" fill-opacity="1.000000" />
<path d="M 125.892578 46.335938 L 125.892578 45.412109 L 132.729980 45.412109 L 132.729980 46.335938 Z " fill="rgb(0, 0, 0)" fill-opacity="1.000000" />
<path d="M 132.892578 46.335938 L 132.892578 45.412109 L 139.729980 45.412109 L 139.729980 46.335938 Z " fill="rgb(0, 0, 0)" fill-opacity="1.000000" />
<path d="M 139.892578 46.335938 L 139.892578 45.412109 L 146.729980 45.412109 L 146.729980 46.335938 Z " fill="rgb(0, 0, 0)" fill-opacity="1.000000" />
<path d="M 146.892578 46.335938 L 146.892578 45.412109 L 153.729980 45.412109 L 153.729980 46.335938 Z " fill="rgb(0, 0, 0)" fill-opacity="1.000000" />
<path d="M 153.892578 46.335938 L 153.892578 45.412109 L 160.729980 45.412109 L 160.729980 46.335938 Z " fill="rgb(0, 0, 0)" fill-opacity="1.000000" />
<path d="M 160.892578 46.335938 L 160.892578 45.412109 L 167.729980 45.412109 L 167.729980 46.335938 Z " fill="rgb(0, 0, 0)" fill-opacity="1.000000" />
<path d="M 167.892578 46.335938 L 167.892578 45.412109 L 174.729980 45.412109 L 174.729980 46.335938 Z " fill="rgb(0, 0, 0)" fill-opacity="1.000000" />
<path d="M 174.892578 46.335938 L 174.892578 45.412109 L 181.729980 45.412109 L 181.729980 46.335938 Z " fill="rgb(0, 0, 0)" fill-opacity="1.000000" />
<path d="M 181.892578 46.335938 L 181.892578 45.412109 L 188.729980 45.412109 L 188.729980 46.335938 Z " fill="rgb(0, 0, 0)" fill-opacity="1.000000" />
<path d="M 188.892578 46.335938 L 188.892578 45.412109 L 195.729980 45.412109 L 195.729980 46.335938 Z " fill="rgb(0, 0, 0)" fill-opacity="1.000000" />
<path d="M 195.892578 46.335938 L 195.892578 45.412109 L 202.729980 45.412109 L 202.729980 46.335938 Z " fill="rgb(0, 0, 0)" fill-opacity="1.000000" />
<path d="M 202.892578 46.335938 L 202.892578 45.412109 L 209.729980 45.412109 L 209.729980 46.335938 Z " fill="rgb(0, 0, 0)" fill-opacity="1.000000" />
<path d="M 209.892578 46.335938 L 209.892578 45.412109 L 216.729980 45.412109 L 216.729980 46.335938 Z " fill="rgb(0, 0, 0)" fill-opacity="1.000000" />
<path d="M 216.892578 46.335938 L 216.892578 45.412109 L 223.729980 45.412109 L 223.729980 46.335938 Z " fill="rgb(0, 0, 0)" fill-opacity="1.000000" />
<path d="M 223.892578 46.335938 L 223.892578 45.412109 L 230.729980 45.412109 L 230.729980 46.335938 Z " fill="rgb(0, 0, 0)" fill-opacity="1.000000" />
<path d="M 233.878906 52.319336 L 233.878906 46.335938 L 230.892578 46.335938 L 230.892578 45.412109 L 234.738281 45.412109 L 234.738281 52.319336 Z " fill="rgb(0, 0, 0)" fill-opacity="1.000000" />
<path d="M 324.878906 52.319336 L 324.878906 38.300781 L 325.738281 38.300781 L 325.738281 52.319336 Z " fill="rgb(0, 0, 0)" fill-opacity="1.000000" />
<path d="M 338.089355 46.830078 L 339.979980 46.830078 L 339.979980 49.000000 L 338.089355 49.000000 Z " fill="rgb(0, 0, 0)" fill-opacity="1.000000" />
<path d="M 352.878906 52.319336 L 352.878906 38.300781 L 353.738281 38.300781 L 353.738281 52.319336 Z " fill="rgb(0, 0, 0)" fill-opacity="1.000000" />
<path d="M 443.878906 52.319336 L 443.878906 45.412109 L 447.729980 45.412109 L 447.729980 46.335938 L 444.738281 46.335938 L 444.738281 52.319336 Z " fill="rgb(0, 0, 0)" fill-opacity="1.000000" />
<path d="M 447.892578 46.335938 L 447.892578 45.412109 L 454.729980 45.412109 L 454.729980 46.335938 Z " fill="rgb(0, 0, 0)" fill-opacity="1.000000" />
<path d="M 454.892578 46.335938 L 454.892578 45.412109 L 461.729980 45.412109 L 461.729980 46.335938 Z " fill="rgb(0, 0, 0)" fill-opacity="1.000000" />
<path d="M 461.892578 46.335938 L 461.892578 45.412109 L 468.729980 45.412109 L 468.729980 46.335938 Z " fill="rgb(0, 0, 0)" fill-opacity="1.000000" />
<path d="M 468.892578 46.335938 L 468.892578 45.412109 L 475.729980 45.412109 L 475.729980 46.335938 Z " fill="rgb(0, 0, 0)" fill-opacity="1.000000" />
<path d="M 475.892578 46.335938 L 475.892578 45.412109 L 482.729980 45.412109 L 482.729980 46.335938 Z " fill="rgb(0, 0, 0)" fill-opacity="1.000000" />
<path d="M 482.892578 46.335938 L 482.892578 45.412109 L 489.729980 45.412109 L 489.729980 46.335938 Z " fill="rgb(0, 0, 0)" fill-opacity="1.000000" />
<path d="M 489.892578 46.335938 L 489.892578 45.412109 L 496.729980 45.412109 L 496.729980 46.335938 Z " fill="rgb(0, 0, 0)" fill-opacity="1.000000" />
<path d="M 496.892578 46.335938 L 496.892578 45.412109 L 503.729980 45.412109 L 503.729980 46.335938 Z " fill="rgb(0, 0, 0)" fill-opacity="1.000000" />
<path d="M 503.892578 46.335938 L 503.892578 45.412109 L 510.729980 45.412109 L 510.729980 46.335938 Z " fill="rgb(0, 0, 0)" fill-opacity="1.000000" />
<path d="M 510.892578 46.335938 L 510.892578 45.412109 L 517.729980 45.412109 L 517.729980 46.335938 Z " fill="rgb(0, 0, 0)" fill-opacity="1.000000" />
<path d="M 517.892578 46.335938 L 517.892578 45.412109 L 524.729980 45.412109 L 524.729980 46.335938 Z " fill="rgb(0, 0, 0)" fill-opacity="1.000000" />
<path d="M 524.892578 46.335938 L 524.892578 45.412109 L 531.729980 45.412109 L 531.729980 46.335938 Z " fill="rgb(0, 0, 0)" fill-opacity="1.000000" />
<path d="M 531.892578 46.335938 L 531.892578 45.412109 L 538.729980 45.412109 L 538.729980 46.335938 Z " fill="rgb(0, 0, 0)" fill-opacity="1.000000" />
<path d="M 538.892578 46.335938 L 538.892578 45.412109 L 545.729980 45.412109 L 545.729980 46.335938 Z " fill="rgb(0, 0, 0)" fill-opacity="1.000000" />
<path d="M 545.892578 46.335938 L 545.892578 45.412109 L 552.729980 45.412109 L 552.729980 46.335938 Z " fill="rgb(0, 0, 0)" fill-opacity="1.000000" />
<path d="M 552.892578 46.335938 L 552.892578 45.412109 L 559.729980 45.412109 L 559.729980 46.335938 Z " fill="rgb(0, 0, 0)" fill-opacity="1.000000" />
<path d="M 559.892578 46.335938 L 559.892578 45.412109 L 566.729980 45.412109 L 566.729980 46.335938 Z " fill="rgb(0, 0, 0)" fill-opacity="1.000000" />
<path d="M 569.878906 52.319336 L 569.878906 46.335938 L 566.892578 46.335938 L 566.892578 45.412109 L 570.738281 45.412109 L 570.738281 52.319336 Z " fill="rgb(0, 0, 0)" fill-opacity="1.000000" />
<path d="M 324.878906 13.319336 L 324.878906 6.412109 L 328.729980 6.412109 L 328.729980 7.335938 L 325.738281 7.335938 L 325.738281 13.319336 Z " fill="rgb(0, 0, 0)" fill-opacity="1.000000" />
<path d="M 324.878906 26.319336 L 324.878906 12.300781 L 325.738281 12.300781 L 325.738281 26.319336 Z " fill="rgb(0, 0, 0)" fill-opacity="1.000000" />
<path d="M 324.878906 39.319336 L 324.878906 25.300781 L 325.738281 25.300781 L 325.738281 39.319336 Z " fill="rgb(0, 0, 0)" fill-opacity="1.000000" />
<path d="M 337.219238 16.973633 L 341.585938 16.973633 L 341.585938 17.875977 L 338.132324 22.194336 L 341.585938 22.194336 L 341.585938 23.000000 L 337.090332 23.000000 L 337.090332 22.086914 L 340.543945 17.763184 L 337.219238 17.763184 Z " fill="rgb(0, 0, 0)" fill-opacity="1.000000" />
<path d="M 338.089355 33.830078 L 339.979980 33.830078 L 339.979980 36.000000 L 338.089355 36.000000 Z " fill="rgb(0, 0, 0)" fill-opacity="1.000000" />
<path d="M 352.878906 39.319336 L 352.878906 25.300781 L 353.738281 25.300781 L 353.738281 39.319336 Z " fill="rgb(0, 0, 0)" fill-opacity="1.000000" />
<path d="M 345.991699 17.440918 Q 345.868164 17.328125 345.868164 17.156250 Q 345.868164 16.984375 345.997070 16.860840 Q 346.120605 16.742676 346.303223 16.742676 Q 346.501953 16.742676 346.625488 16.860840 Q 346.754395 16.984375 346.754395 17.156250 Q 346.754395 17.333496 346.625488 17.440918 Q 346.491211 17.553711 346.303223 17.553711 Q 346.115234 17.553711 345.991699 17.440918 Z M 346.308594 15.313965 Q 345.841309 15.313965 345.610352 15.770508 Q 345.374023 16.227051 345.374023 17.166992 Q 345.374023 18.101562 345.610352 18.558105 Q 345.841309 19.014648 346.308594 19.014648 Q 346.781250 19.014648 347.012207 18.558105 Q 347.248535 18.101562 347.248535 17.166992 Q 347.248535 16.227051 347.012207 15.770508 Q 346.781250 15.313965 346.308594 15.313965 Z M 346.308594 14.835938 Q 347.108887 14.835938 347.517090 15.426758 Q 347.925293 16.012207 347.925293 17.166992 Q 347.925293 18.316406 347.517090 18.907227 Q 347.108887 19.492676 346.308594 19.492676 Q 345.502930 19.492676 345.105469 18.907227 Q 344.702637 18.316406 344.702637 17.166992 Q 344.702637 16.012207 345.105469 15.426758 Q 345.513672 14.835938 346.308594 14.835938 Z " fill="rgb(0, 0, 0)" fill-opacity="1.000000" />
<path d="M 352.878906 26.319336 L 352.878906 12.300781 L 353.738281 12.300781 L 353.738281 26.319336 Z " fill="rgb(0, 0, 0)" fill-opacity="1.000000" />
<path d="M 328.892578 7.335938 L 328.892578 6.412109 L 335.729980 6.412109 L 335.729980 7.335938 Z " fill="rgb(0, 0, 0)" fill-opacity="1.000000" />
<path d="M 335.892578 7.335938 L 335.892578 6.412109 L 342.729980 6.412109 L 342.729980 7.335938 Z " fill="rgb(0, 0, 0)" fill-opacity="1.000000" />
<path d="M 342.892578 7.335938 L 342.892578 6.412109 L 349.729980 6.412109 L 349.729980 7.335938 Z " fill="rgb(0, 0, 0)" fill-opacity="1.000000" />
<path d="M 352.878906 13.319336 L 352.878906 7.335938 L 349.892578 7.335938 L 349.892578 6.412109 L 353.738281 6.412109 L 353.738281 13.319336 Z " fill="rgb(0, 0, 0)" fill-opacity="1.000000" />
</svg>